<svg xmlns="http://www.w3.org/2000/svg" xmlns:xlink="http://www.w3.org/1999/xlink" width="36" height="36" viewBox="0 0 36 36"><defs><clipPath id="clip-path"><rect id="Rectangle_581" data-name="Rectangle 581" width="36" height="36" transform="translate(-4.177)" fill="#fff" stroke="#707070" stroke-width="1"></rect></clipPath></defs><g id="Audio" transform="translate(4.177)" clip-path="url(#clip-path)"><g id="Icon_core-microphone" data-name="Icon core-microphone" transform="translate(-4.802 -0.125)"><path id="Path_19780" data-name="Path 19780" d="M18,23.063a6.758,6.758,0,0,0,6.75-6.75V7.875a6.75,6.75,0,1,0-13.5,0v8.437A6.758,6.758,0,0,0,18,23.063Z" fill="#2ab96d"></path><path id="Path_19781" data-name="Path 19781" d="M28.125,12.375v3.938a10.125,10.125,0,0,1-20.25,0V12.375H5.625v3.938a12.391,12.391,0,0,0,11.25,12.323v6.239h2.25V28.636a12.391,12.391,0,0,0,11.25-12.323V12.375Z" fill="#2ab96d"></path></g></g></svg>