<svg xmlns="http://www.w3.org/2000/svg" xmlns:xlink="http://www.w3.org/1999/xlink" width="124" height="124" viewBox="0 0 124 124"><defs><clipPath id="clip-path"><rect id="Rectangle_636" data-name="Rectangle 636" width="124" height="124" transform="translate(1371 3969)" fill="#fff"></rect></clipPath><clipPath id="clip-path-2"><rect id="Rectangle_337" data-name="Rectangle 337" width="52.67" height="105.049" fill="#011ca3"></rect></clipPath></defs><g id="Battery" transform="translate(-1371 -3969)" clip-path="url(#clip-path)"><g id="Group_884" data-name="Group 884" transform="translate(1485.049 4005) rotate(90)"><g id="Group_736" data-name="Group 736" transform="translate(0 0)" clip-path="url(#clip-path-2)"><path id="Path_19568" data-name="Path 19568" d="M5.2,105.049A6.706,6.706,0,0,1,.148,99.931,7.728,7.728,0,0,1,.007,98.2Q0,59.16,0,20.118C0,15.878,2.756,13.144,7,13.126c1.708-.006,3.416-.03,5.124.012.751.018,1.022-.228,1.011-1-.033-2.835-.02-5.67-.009-8.5A3.3,3.3,0,0,1,16.746.006q9.58-.011,19.162,0a3.292,3.292,0,0,1,3.6,3.649c.011,2.733.041,5.467-.017,8.2-.02.958.224,1.339,1.247,1.292,1.7-.08,3.415-.032,5.123-.02a6.5,6.5,0,0,1,6.766,6.784q.018,22.546.006,45.089c0,10.862-.071,21.725.038,32.587.038,3.81-1.8,6.476-5.236,7.462Zm21.19-20.37a4.668,4.668,0,0,0,.254-.433Q32.771,68.93,38.908,53.616c.331-.819.105-1-.7-.993-3.588.026-7.177-.018-10.764.03-.951.012-1.221-.306-1.214-1.232.038-4.716.017-9.432.017-14.147v-3.64a2.036,2.036,0,0,0-.213.27Q19.863,49.316,13.687,64.726c-.352.876.1.892.739.891,3.52-.011,7.04-.006,10.558,0,1.4,0,1.4.006,1.4,1.418,0,5.808,0,11.617,0,17.649" transform="translate(0 0)" fill="#011ca3"></path></g></g></g></svg>