<svg xmlns="http://www.w3.org/2000/svg" xmlns:xlink="http://www.w3.org/1999/xlink" width="36" height="36" viewBox="0 0 36 36"><defs><clipPath id="clip-path"><rect id="Rectangle_581" data-name="Rectangle 581" width="36" height="36" transform="translate(-4.177)" fill="#fff" stroke="#707070" stroke-width="1"></rect></clipPath></defs><g id="Camare" transform="translate(4.177)" clip-path="url(#clip-path)"><g id="Icon_ion-md-camera" data-name="Icon ion-md-camera" transform="translate(-0.103 6.102)"><path id="Path_19631" data-name="Path 19631" d="M21.4,19.175a3.917,3.917,0,1,1-3.917-3.917A3.917,3.917,0,0,1,21.4,19.175Z" transform="translate(-3.56 -5.745)" fill="#2ab96d"></path><path id="Path_19632" data-name="Path 19632" d="M27.617,6.49H22.145L20.156,4.5H12.2l-1.99,1.99H4.737A2.487,2.487,0,0,0,2.25,8.976V25.888a2.487,2.487,0,0,0,2.487,2.487h22.88A2.487,2.487,0,0,0,30.1,25.888V8.976A2.487,2.487,0,0,0,27.617,6.49Zm-11.44,18.4a6.963,6.963,0,1,1,6.963-6.963A6.963,6.963,0,0,1,16.177,24.893Z" transform="translate(-2.25 -4.5)" fill="#2ab96d"></path></g></g></svg>