<svg xmlns="http://www.w3.org/2000/svg" xmlns:xlink="http://www.w3.org/1999/xlink" width="36" height="36" viewBox="0 0 36 36"><defs><clipPath id="clip-path"><rect id="Rectangle_581" data-name="Rectangle 581" width="36" height="36" transform="translate(-4.177)" fill="#fff" stroke="#707070" stroke-width="1"></rect></clipPath></defs><g id="Communication" transform="translate(4.177)" clip-path="url(#clip-path)"><path id="Icon_material-cell-wifi" data-name="Icon material-cell-wifi" d="M27,14.97,9,33H33V8.955L27,14.97ZM30,30H27V19.17l3-3ZM7.83,10.83,5.895,8.9a15,15,0,0,1,21.225,0L25.185,10.83a12.285,12.285,0,0,0-17.355,0ZM19.4,16.6l-2.9,2.9-2.9-2.9A4.11,4.11,0,0,1,19.4,16.6Zm1.935-1.92a6.835,6.835,0,0,0-9.645,0L9.75,12.75a9.561,9.561,0,0,1,13.5,0Z" transform="translate(-6.176 -1.738)" fill="#2ab96d" stroke="rgba(0,0,0,0)" stroke-width="1"></path></g></svg>