<svg xmlns="http://www.w3.org/2000/svg" xmlns:xlink="http://www.w3.org/1999/xlink" width="96" height="96" viewBox="0 0 96 96"><defs><clipPath id="clip-path"><rect id="Rectangle_638" data-name="Rectangle 638" width="60" height="60" fill="#fff" opacity="0.64"></rect></clipPath><clipPath id="clip-path-2"><rect id="Rectangle_637" data-name="Rectangle 637" width="57.755" height="42.992" fill="#fff"></rect></clipPath></defs><g id="Group_45056" data-name="Group 45056" transform="translate(7269.028 11470.818)"><g id="Group_45055" data-name="Group 45055" transform="translate(-7265.057 -11466.813)"><circle id="Ellipse_116" data-name="Ellipse 116" cx="44" cy="44" r="44" transform="translate(0 0)" fill="#6b30d4"></circle><g id="Mask_Group_854" data-name="Mask Group 854" transform="translate(13.5 14.463)" clip-path="url(#clip-path)"><g id="Group_45054" data-name="Group 45054" transform="translate(1.477 8.044)"><g id="Group_45053" data-name="Group 45053" clip-path="url(#clip-path-2)"><path id="Path_19795" data-name="Path 19795" d="M0,22.338c2.657-4.729,5.275-9.481,8.07-14.133A9.625,9.625,0,0,1,9.394,6.32a2.923,2.923,0,0,1,3.277-.864,3.106,3.106,0,0,1,2.011,2.882c.2,2.474.08,4.954.084,7.431,0,1.523.045,3.042-.058,4.562-.055.839-.035.839.8.842a1.835,1.835,0,0,1,1.979,1.16,1.737,1.737,0,0,1-1.42,2.291c-.058.006-.112.006-.17.01-1.208.045-1.208.045-1.211,1.237,0,1.144,0,2.291-.013,3.434a1.777,1.777,0,1,1-3.531,0c-.006-1.333-.01-2.667.026-4,.013-.511-.145-.684-.671-.681-2.8.022-5.6-.016-8.395.026A2.048,2.048,0,0,1,0,23.466ZM11.235,9.844c-.109.1-.157.132-.183.177-2.162,3.537-4.16,7.171-6.2,10.779-.19.331-.035.376.257.376,1.876-.006,3.752-.01,5.629,0,.353,0,.5-.112.5-.485-.01-3.582-.006-7.164-.006-10.849" transform="translate(0 11.628)" fill="#fff"></path><path id="Path_19796" data-name="Path 19796" d="M25.332,16.548c1.089,0,2.178-.006,3.267,0a1.67,1.67,0,0,1,1.851,1.706C30.4,22.61,29.2,26.539,25.531,29.235c-3.457,2.532-7.315,2.634-11.212,1.185A13,13,0,0,1,17.265,5.38a12.757,12.757,0,0,1,8.774,1.953,1.8,1.8,0,0,1,.925,2.046,1.759,1.759,0,0,1-2.721.961,10.357,10.357,0,0,0-3.531-1.42A9.513,9.513,0,0,0,15.79,27.237c4.726,1.6,9.442-.1,10.808-5.889.315-1.34.315-1.34-1.073-1.34-1.147,0-2.294.006-3.438,0a1.734,1.734,0,1,1-.022-3.457c1.089-.01,2.178,0,3.267,0" transform="translate(13.15 11.633)" fill="#fff"></path><path id="Path_19797" data-name="Path 19797" d="M15,0A15.108,15.108,0,0,1,27.591,7.543a14.209,14.209,0,0,1,2.085,7.56,1.736,1.736,0,1,1-3.463.074A11.812,11.812,0,0,0,16.867,3.743a15.555,15.555,0,0,0-2.4-.276A1.724,1.724,0,0,1,12.69,1.69,1.714,1.714,0,0,1,14.547,0H15" transform="translate(28.079 -0.001)" fill="#fff"></path><path id="Path_19798" data-name="Path 19798" d="M22.911,10.252c.013,1.282-.62,2.059-1.693,2.075a1.677,1.677,0,0,1-1.757-1.613A5.3,5.3,0,0,0,17.62,6.754,5.4,5.4,0,0,0,14.4,5.565a1.7,1.7,0,0,1-1.712-1.831,1.718,1.718,0,0,1,1.86-1.629,8.462,8.462,0,0,1,8.359,8.147" transform="translate(28.078 4.656)" fill="#fff"></path><path id="Path_19799" data-name="Path 19799" d="M14.4,4.211A1.729,1.729,0,1,1,12.69,5.933,1.7,1.7,0,0,1,14.4,4.211" transform="translate(28.079 9.316)" fill="#fff"></path></g></g></g></g><rect id="Rectangle_639" data-name="Rectangle 639" width="96" height="96" transform="translate(-7269.028 -11470.818)" fill="none"></rect></g></svg>