<svg xmlns="http://www.w3.org/2000/svg" id="Layer_2" data-name="Layer 2" viewBox="0 0 36 36"><defs><style>      .cls-1 {        fill: none;      }      .cls-2 {        fill: #06b96d;      }    </style></defs><g id="Layer_1-2" data-name="Layer 1"><g><rect class="cls-1" width="36" height="36"></rect><g><path class="cls-2" d="M27.85,4.3H8.14c-2.11,0-3.84,1.72-3.84,3.85v19.71c0,2.11,1.72,3.84,3.84,3.84h19.71c2.12,0,3.85-1.72,3.85-3.84V8.15c0-2.12-1.72-3.85-3.85-3.85ZM28.27,27.13c0,.63-.51,1.14-1.14,1.14H8.87c-.63,0-1.14-.51-1.14-1.14v-11.76c0-.63.51-1.14,1.14-1.14h1.64v-1.96c0-.63.51-1.14,1.14-1.14h1.45v-1.95c0-.63.51-1.14,1.14-1.14h7.62c.63,0,1.14.51,1.14,1.14v1.95h1.45c.63,0,1.14.51,1.14,1.14v1.96h1.53c.63,0,1.14.51,1.14,1.14v11.76Z"></path><path class="cls-2" d="M11.15,21.37c-.63,0-1.14.5-1.14,1.14v2.34c0,.63.51,1.14,1.14,1.14s1.14-.51,1.14-1.14v-2.34c0-.64-.51-1.14-1.14-1.14Z"></path><path class="cls-2" d="M15.72,21.37c-.63,0-1.14.5-1.14,1.14v2.34c0,.63.51,1.14,1.14,1.14s1.14-.51,1.14-1.14v-2.34c0-.64-.51-1.14-1.14-1.14Z"></path><path class="cls-2" d="M20.28,21.37c-.63,0-1.14.5-1.14,1.14v2.34c0,.63.51,1.14,1.14,1.14s1.14-.51,1.14-1.14v-2.34c0-.64-.51-1.14-1.14-1.14Z"></path><path class="cls-2" d="M24.85,21.37c-.63,0-1.14.5-1.14,1.14v2.34c0,.63.51,1.14,1.14,1.14s1.14-.51,1.14-1.14v-2.34c0-.64-.51-1.14-1.14-1.14Z"></path></g></g></g></svg>