<svg xmlns="http://www.w3.org/2000/svg" xmlns:xlink="http://www.w3.org/1999/xlink" width="36" height="36" viewBox="0 0 36 36"><defs><clipPath id="clip-path"><rect id="Rectangle_581" data-name="Rectangle 581" width="36" height="36" transform="translate(-4.177)" fill="#fff" stroke="#707070" stroke-width="1"></rect></clipPath></defs><g id="Diplay" transform="translate(4.177)" clip-path="url(#clip-path)"><path id="Icon_material-twotone-add-to-home-screen" data-name="Icon material-twotone-add-to-home-screen" d="M27,1.515,12,1.5a3.009,3.009,0,0,0-3,3V9h3V7.5H27v21H12V27H9v4.5a3.009,3.009,0,0,0,3,3H27a3.009,3.009,0,0,0,3-3V4.5a3,3,0,0,0-3-2.985ZM15,22.5h3V12H7.5v3h5.385L4.5,23.385,6.615,25.5,15,17.115Z" transform="translate(-3.677 0.5)" fill="#2ab96d" stroke="rgba(0,0,0,0)" stroke-width="1"></path></g></svg>