<svg xmlns="http://www.w3.org/2000/svg" xmlns:xlink="http://www.w3.org/1999/xlink" id="Fb-Hover" width="24" height="24" viewBox="0 0 24 24"><defs><clipPath id="clip-path"><rect id="Rectangle_479" data-name="Rectangle 479" width="24" height="24" transform="translate(1496.012 11.366)" fill="none" stroke="#707070" stroke-width="1"></rect></clipPath></defs><g id="Mask_Group_63" data-name="Mask Group 63" transform="translate(-1496.012 -11.366)" clip-path="url(#clip-path)"><path id="Icon_corebrands-facebook-f" data-name="Icon corebrands-facebook-f" d="M18.086,10.932l.54-3.517H15.251V5.133a1.759,1.759,0,0,1,1.983-1.9h1.534V.239A18.714,18.714,0,0,0,16.045,0c-2.779,0-4.6,1.685-4.6,4.734V7.416H8.36v3.517h3.089v8.5h3.8v-8.5Z" transform="translate(1494.152 -12.851)" fill="#fff"></path><path id="Icon_corebrands-facebook-f-2" data-name="Icon corebrands-facebook-f" d="M18.086,10.932l.54-3.517H15.251V5.133a1.759,1.759,0,0,1,1.983-1.9h1.534V.239A18.714,18.714,0,0,0,16.045,0c-2.779,0-4.6,1.685-4.6,4.734V7.416H8.36v3.517h3.089v8.5h3.8v-8.5Z" transform="translate(1494.152 14.149)" fill="#06b96d"></path></g></svg>