<svg xmlns="http://www.w3.org/2000/svg" xmlns:xlink="http://www.w3.org/1999/xlink" id="Insta" width="24" height="24" viewBox="0 0 24 24"><defs><clipPath id="clip-path"><rect id="Rectangle_483" data-name="Rectangle 483" width="24" height="24" transform="translate(1496.012 11.366)" fill="none" stroke="#707070" stroke-width="1"></rect></clipPath></defs><g id="Insta-2" data-name="Insta" transform="translate(-1496.012 -11.366)" clip-path="url(#clip-path)"><g id="Instagram-logo" transform="translate(1498.703 14.401)"><path id="Path_19606" data-name="Path 19606" d="M7.953,4.432A3.291,3.291,0,0,0,4.6,7.659a3.291,3.291,0,0,0,3.352,3.227A3.291,3.291,0,0,0,11.3,7.659,3.291,3.291,0,0,0,7.953,4.432Z" transform="translate(1.357 1.307)" fill="#fff"></path><path id="Path_19607" data-name="Path 19607" d="M14.5,0H4.12A4.12,4.12,0,0,0,0,4.12v9.691a4.12,4.12,0,0,0,4.12,4.12H14.5a4.12,4.12,0,0,0,4.12-4.12V4.12A4.12,4.12,0,0,0,14.5,0ZM9.312,13.629A4.754,4.754,0,0,1,4.471,8.967,4.754,4.754,0,0,1,9.312,4.305a4.754,4.754,0,0,1,4.841,4.662A4.754,4.754,0,0,1,9.312,13.629Zm5.4-8.607a1.28,1.28,0,0,1-1.3-1.255,1.3,1.3,0,0,1,2.607,0,1.28,1.28,0,0,1-1.3,1.255Z" transform="translate(0)" fill="#fff"></path></g><g id="Instagram-logo-2" data-name="Instagram-logo" transform="translate(1498.703 38.653)"><path id="Path_19608" data-name="Path 19608" d="M7.953,4.432A3.291,3.291,0,0,0,4.6,7.659a3.291,3.291,0,0,0,3.352,3.227A3.291,3.291,0,0,0,11.3,7.659,3.291,3.291,0,0,0,7.953,4.432Z" transform="translate(1.357 1.307)" fill="#06b96d"></path><path id="Path_19609" data-name="Path 19609" d="M14.5,0H4.12A4.12,4.12,0,0,0,0,4.12v9.691a4.12,4.12,0,0,0,4.12,4.12H14.5a4.12,4.12,0,0,0,4.12-4.12V4.12A4.12,4.12,0,0,0,14.5,0ZM9.312,13.629A4.754,4.754,0,0,1,4.471,8.967,4.754,4.754,0,0,1,9.312,4.305a4.754,4.754,0,0,1,4.841,4.662A4.754,4.754,0,0,1,9.312,13.629Zm5.4-8.607a1.28,1.28,0,0,1-1.3-1.255,1.3,1.3,0,0,1,2.607,0,1.28,1.28,0,0,1-1.3,1.255Z" transform="translate(0)" fill="#06b96d"></path></g></g></svg>