<svg xmlns="http://www.w3.org/2000/svg" xmlns:xlink="http://www.w3.org/1999/xlink" id="Linked_In-Hover" data-name="Linked In-Hover" width="24" height="24" viewBox="0 0 24 24"><defs><clipPath id="clip-path"><rect id="Rectangle_485" data-name="Rectangle 485" width="24" height="24" transform="translate(1496.012 11.366)" fill="none" stroke="#707070" stroke-width="1"></rect></clipPath></defs><g id="Linked_In" data-name="Linked In" transform="translate(-1496.012 -11.366)" clip-path="url(#clip-path)"><path id="Path_19610" data-name="Path 19610" d="M39.5,28.7v5.939H36.053V29.1c0-1.391-.5-2.34-1.746-2.34a1.88,1.88,0,0,0-1.766,1.259,2.352,2.352,0,0,0-.116.838v5.787H28.979s.045-9.386,0-10.36h3.446v1.469a.329.329,0,0,1-.025.033h.025v-.033a3.42,3.42,0,0,1,3.1-1.713c2.266,0,3.966,1.482,3.966,4.66h0ZM23.634,34.641h3.442V24.281H23.634ZM27.18,20.765A1.775,1.775,0,1,1,25.4,18.99,1.775,1.775,0,0,1,27.18,20.765Z" transform="translate(1476.449 -30.057)" fill="#fff"></path><path id="Path_19611" data-name="Path 19611" d="M39.5,28.7v5.939H36.053V29.1c0-1.391-.5-2.34-1.746-2.34a1.88,1.88,0,0,0-1.766,1.259,2.352,2.352,0,0,0-.116.838v5.787H28.979s.045-9.386,0-10.36h3.446v1.469a.329.329,0,0,1-.025.033h.025v-.033a3.42,3.42,0,0,1,3.1-1.713c2.266,0,3.966,1.482,3.966,4.66h0ZM23.634,34.641h3.442V24.281H23.634ZM27.18,20.765A1.775,1.775,0,1,1,25.4,18.99,1.775,1.775,0,0,1,27.18,20.765Z" transform="translate(1476.449 -3.166)" fill="#06b96d"></path></g></svg>