<svg xmlns="http://www.w3.org/2000/svg" width="158.37" height="47.448" viewBox="0 0 158.37 47.448"><g id="Logo" transform="translate(-196 -60.375)"><path id="Path_19594" data-name="Path 19594" d="M198.033,119.523a4.619,4.619,0,0,1,3.02.809,2.868,2.868,0,0,1,.953,2.316,3.758,3.758,0,0,1-.222,1.292,2.754,2.754,0,0,1-.719,1.076,3.491,3.491,0,0,1-1.3.732,6.344,6.344,0,0,1-1.976.267h-1.3v4.208h-1.241v-10.7Zm-.116,1.061h-1.432v4.362h1.162a5.657,5.657,0,0,0,1.705-.22,1.908,1.908,0,0,0,1.026-.714,2.259,2.259,0,0,0,.344-1.313,1.884,1.884,0,0,0-.679-1.592,3.486,3.486,0,0,0-2.125-.523" transform="translate(60.546 -22.546)"></path><path id="Path_19595" data-name="Path 19595" d="M248.531,130.123l-1.314-3.4h-4.28l-1.308,3.4h-1.256l4.178-10.743h1.117l4.149,10.743Zm-1.687-4.5-1.249-3.374c-.029-.088-.077-.232-.142-.432s-.133-.407-.2-.622-.124-.388-.168-.52q-.073.3-.157.6c-.056.2-.111.38-.164.549s-.1.311-.139.428l-1.271,3.374Z" transform="translate(29.236 -22.447)"></path><path id="Path_19596" data-name="Path 19596" d="M295.963,124.888l2.841-5.365h1.337l-3.557,6.55v4.15h-1.242v-4.091l-3.564-6.609h1.358Z" transform="translate(-6.427 -22.546)"></path><path id="Path_19597" data-name="Path 19597" d="M344.641,130.223h-1.249v-9.6h-3.36v-1.1h7.954v1.1h-3.345Z" transform="translate(-39.904 -22.546)"></path><path id="Path_19598" data-name="Path 19598" d="M397.738,130.223h-5.945v-10.7h5.945v1.1h-4.7v3.462h4.434v1.083h-4.434v3.96h4.7Z" transform="translate(-75.814 -22.546)"></path><path id="Path_19599" data-name="Path 19599" d="M442.775,120.119a3.978,3.978,0,0,0-1.589.3,3.25,3.25,0,0,0-1.2.878,4,4,0,0,0-.756,1.387,6.626,6.626,0,0,0,.157,4.168,3.311,3.311,0,0,0,1.257,1.533,3.774,3.774,0,0,0,2.092.542,7.146,7.146,0,0,0,1.348-.121,11.793,11.793,0,0,0,1.231-.3v1.083a6.486,6.486,0,0,1-1.227.325,9.508,9.508,0,0,1-1.526.106,5.078,5.078,0,0,1-2.721-.677,4.161,4.161,0,0,1-1.636-1.914,7.212,7.212,0,0,1-.544-2.92,6.889,6.889,0,0,1,.34-2.221,4.952,4.952,0,0,1,.993-1.738,4.4,4.4,0,0,1,1.606-1.131,5.626,5.626,0,0,1,2.188-.4,7.445,7.445,0,0,1,1.563.161,5.808,5.808,0,0,1,1.358.461l-.5,1.054a7.713,7.713,0,0,0-1.121-.406,4.837,4.837,0,0,0-1.318-.172" transform="translate(-107.637 -22.198)"></path><path id="Path_19600" data-name="Path 19600" d="M498.829,130.223h-1.242V125.18h-5.609v5.042h-1.242v-10.7h1.242v4.56h5.609v-4.56h1.242Z" transform="translate(-144.459 -22.546)"></path><path id="Path_19588" data-name="Path 19588" d="M179.4,53.364a1.758,1.758,0,0,1-1.622-1.033l-7.713-20.663H174l5.414,14.21,5.519-14.226h3.947l-7.83,20.7a1.817,1.817,0,0,1-1.647,1.014" transform="translate(78.015 38.417)"></path><path id="Path_19589" data-name="Path 19589" d="M247.9,52.831,242.378,38.6l-5.414,14.21h-3.933l7.713-20.663a1.758,1.758,0,0,1,1.622-1.033,1.807,1.807,0,0,1,1.658,1.04l7.819,20.672Z" transform="translate(34.33 38.786)"></path><path id="Path_19590" data-name="Path 19590" d="M317.476,53.126c-2.524,0-3.7-1.283-3.7-4.039V31.545h4.06V49.41H327.3v3.717Z" transform="translate(-21.689 38.49)"></path><path id="Path_19591" data-name="Path 19591" d="M385.526,52.922c-5.085,0-7.557-3.583-7.557-10.953s2.473-10.953,7.557-10.953h3.582c5.085,0,7.556,3.583,7.556,10.953s-2.472,10.953-7.556,10.953Zm1.5-18.19c-2.289.017-5.017,1.06-5.017,5.935v2.766c.034,4.966,2.894,5.865,5.442,5.821,2.357,0,5.167-1.01,5.167-5.821V40.667c-.072-5.2-2.894-6-5.593-5.935" transform="translate(-66.225 38.858)"></path><path id="Path_19592" data-name="Path 19592" d="M473.751,53.088,470.14,46c-.787-1.618-.812-2.844-.072-3.739l3.727-4.49a2.346,2.346,0,0,0,.609-1.538,1.189,1.189,0,0,0-1.359-1.2h-7.436v18.06h-3.9l-.016-21.6H473.1a4.96,4.96,0,0,1,3.6,1.317c1.98,1.825,1.813,5.795-.272,7.7l-.031.034c-.011.014-2.01,2.375-2.017,2.389a2.134,2.134,0,0,0-.205,2.214l4.417,7.942Z" transform="translate(-124.312 38.529)"></path><path id="Path_19593" data-name="Path 19593" d="M43.677,65.516a44.527,44.527,0,0,1-19.162,25.87A44.565,44.565,0,0,1,5.353,65.516l4.476-2.142A44.816,44.816,0,0,0,24.515,78.6,44.791,44.791,0,0,0,39.2,63.374Z" transform="translate(192.286 16.408)" fill="#011ca3"></path><path id="Path_19587" data-name="Path 19587" d="M40.507,19.4,36.538,17.5,20.806,9.955,5.069,17.5,1.1,19.4A38.529,38.529,0,0,1,.009,9.968l1.737-.833L20.806,0,39.856,9.135l1.742.833A38.522,38.522,0,0,1,40.507,19.4" transform="translate(196 60.375)" fill="#06b96d"></path></g></svg>