<svg xmlns="http://www.w3.org/2000/svg" width="16" height="16" viewBox="0 0 16 16"><g id="Mail" transform="translate(-2414 -2600)"><rect id="Rectangle_5968" data-name="Rectangle 5968" width="16" height="16" transform="translate(2414 2600)" fill="none"></rect><path id="Icon_ion-mail" data-name="Icon ion-mail" d="M16.25,5.625h-12a2,2,0,0,0-2,2V16.2a2,2,0,0,0,2,2h12a2,2,0,0,0,2-2V7.625a2,2,0,0,0-2-2Zm-.506,3.308-5.143,4a.571.571,0,0,1-.7,0l-5.143-4a.571.571,0,1,1,.7-.9l4.792,3.727,4.792-3.727a.571.571,0,1,1,.7.9Z" transform="translate(2411.75 2596.081)" fill="#fff"></path></g></svg>