<svg xmlns="http://www.w3.org/2000/svg" xmlns:xlink="http://www.w3.org/1999/xlink" width="36" height="36" viewBox="0 0 36 36"><defs><clipPath id="clip-path"><rect id="Rectangle_581" data-name="Rectangle 581" width="36" height="36" transform="translate(-4.177)" fill="#fff" stroke="#707070" stroke-width="1"></rect></clipPath></defs><g id="Memory" transform="translate(4.177)" clip-path="url(#clip-path)"><path id="Icon_material-round-sd-card" data-name="Icon material-round-sd-card" d="M25.417,3H15.473a2.782,2.782,0,0,0-1.969.818l-6.671,6.7A2.791,2.791,0,0,0,6,12.459V27.965a2.782,2.782,0,0,0,2.774,2.774H25.417a2.782,2.782,0,0,0,2.774-2.774V5.774A2.782,2.782,0,0,0,25.417,3Zm-9.709,8.322a1.391,1.391,0,0,1-1.387-1.387V7.161a1.387,1.387,0,0,1,2.774,0V9.935A1.391,1.391,0,0,1,15.709,11.322Zm4.161,0a1.391,1.391,0,0,1-1.387-1.387V7.161a1.387,1.387,0,0,1,2.774,0V9.935A1.391,1.391,0,0,1,19.87,11.322Zm4.161,0a1.391,1.391,0,0,1-1.387-1.387V7.161a1.387,1.387,0,0,1,2.774,0V9.935A1.391,1.391,0,0,1,24.031,11.322Z" transform="translate(-3.271 1.169)" fill="#2ab96d" stroke="rgba(0,0,0,0)" stroke-width="1"></path></g></svg>