<svg xmlns="http://www.w3.org/2000/svg" xmlns:xlink="http://www.w3.org/1999/xlink" width="144" height="102" viewBox="0 0 144 102"><defs><clipPath id="clip-path"><rect id="Rectangle_3195" data-name="Rectangle 3195" width="144" height="102" transform="translate(676 3986)" fill="rgba(0,0,0,0.35)"></rect></clipPath><clipPath id="clip-path-2"><rect id="Rectangle_571" data-name="Rectangle 571" width="128" height="96" transform="translate(0 5345.743)" fill="none" stroke="#707070" stroke-width="1"></rect></clipPath><clipPath id="clip-path-3"><rect id="Rectangle_336" data-name="Rectangle 336" width="118.818" height="61.061" fill="#06b96d"></rect></clipPath></defs><g id="OS" transform="translate(-676 -3986)" clip-path="url(#clip-path)"><g id="Mask_Group_791" data-name="Mask Group 791" transform="translate(684.532 -1356.68)" clip-path="url(#clip-path-2)"><g id="Group_885" data-name="Group 885" transform="translate(5 5362.743)"><g id="Group_734" data-name="Group 734" clip-path="url(#clip-path-3)"><path id="Path_19567" data-name="Path 19567" d="M88.3,16.121,98.559,1.678a.36.36,0,0,0,.072-.233A1.586,1.586,0,0,0,97.861.39c-.573-.412-1.235-.519-1.45-.215L85.852,15.083a72.816,72.816,0,0,0-26.434-4.564c-10.649-.036-19.4,1.647-26.559,4.421L22.407.175c-.215-.3-.859-.2-1.45.215a1.55,1.55,0,0,0-.752,1.056.36.36,0,0,0,.072.233L30.389,15.942C.841,28.989,0,61.06,0,61.06H118.818S117.637,29.275,88.3,16.121m-54.962,26.2a7.15,7.15,0,1,1,7.141-7.159,7.157,7.157,0,0,1-7.141,7.159m52.152,0a7.15,7.15,0,1,1,7.141-7.159,7.157,7.157,0,0,1-7.141,7.159" transform="translate(0 0.001)" fill="#06b96d"></path></g></g></g></g></svg>