<svg xmlns="http://www.w3.org/2000/svg" xmlns:xlink="http://www.w3.org/1999/xlink" width="16" height="16" viewBox="0 0 16 16"><defs><clipPath id="clip-path"><rect id="Rectangle_5967" data-name="Rectangle 5967" width="16" height="16" transform="translate(2233 2602)" fill="#fff" stroke="#707070" stroke-width="1"></rect></clipPath></defs><g id="Phone-icon" transform="translate(-2233 -2602)" clip-path="url(#clip-path)"><path id="Icon_fa-solid-phone" data-name="Icon fa-solid-phone" d="M5.054.753A1.222,1.222,0,0,0,3.6.042L.9.778A1.23,1.23,0,0,0,0,1.961,13.732,13.732,0,0,0,13.732,15.692a1.23,1.23,0,0,0,1.183-.9l.736-2.7a1.222,1.222,0,0,0-.711-1.453L12,9.412a1.222,1.222,0,0,0-1.419.356L9.339,11.279A10.359,10.359,0,0,1,4.414,6.353L5.925,5.118A1.223,1.223,0,0,0,6.28,3.7L5.054.756Z" transform="translate(2233 2602.001)" fill="#fff"></path></g></svg>