<svg xmlns="http://www.w3.org/2000/svg" xmlns:xlink="http://www.w3.org/1999/xlink" width="36" height="36" viewBox="0 0 36 36"><defs><clipPath id="clip-path"><rect id="Rectangle_581" data-name="Rectangle 581" width="36" height="36" transform="translate(-4.177)" fill="#fff" stroke="#707070" stroke-width="1"></rect></clipPath><clipPath id="clip-path-2"><rect id="Rectangle_3209" data-name="Rectangle 3209" width="26.216" height="27.559" transform="translate(0 0)" fill="#2ab96d"></rect></clipPath></defs><g id="Platform_icon" data-name="Platform icon" transform="translate(4.177)" clip-path="url(#clip-path)"><g id="Group_45054" data-name="Group 45054" transform="translate(0.715 4.218)"><g id="Group_45053" data-name="Group 45053" transform="translate(0 0.002)" clip-path="url(#clip-path-2)"><path id="Path_19786" data-name="Path 19786" d="M14.742,0h.474c.129.023.259.027.389.04A5.757,5.757,0,0,1,16.635.3c1.094.326,2.164.722,3.232,1.123Q21.419,2,22.953,2.632q2.008.818,4,1.671a1.344,1.344,0,0,1,.447.379,2.688,2.688,0,0,1,.424.7,1.9,1.9,0,0,1,.123.72,3.384,3.384,0,0,1-.036.744,2.125,2.125,0,0,1-.362.807,2.487,2.487,0,0,1-.916.777C25.76,8.915,24.887,9.4,24,9.873q-1.25.664-2.525,1.278a36.358,36.358,0,0,1-3.58,1.532,11.994,11.994,0,0,1-2.418.646,4.882,4.882,0,0,1-1.646-.08,15.967,15.967,0,0,1-2.427-.739c-1.044-.4-2.063-.849-3.071-1.327-.577-.274-1.152-.55-1.72-.842C5.327,9.676,4.049,8.994,2.8,8.264a2.04,2.04,0,0,1-.677-.724,2.422,2.422,0,0,1,.086-2.622,2.977,2.977,0,0,1,.441-.484.889.889,0,0,1,.285-.147Q4.585,3.581,6.247,2.9C7.193,2.51,8.142,2.129,9.1,1.761,10.244,1.319,11.4.89,12.569.513q.681-.22,1.374-.4a4.437,4.437,0,0,1,.737-.1c.021,0,.043.006.062-.011" transform="translate(-1.738 -0.002)" fill="#2ab96d"></path><path id="Path_19787" data-name="Path 19787" d="M0,832.525c.038-.036.03-.087.038-.13a2.492,2.492,0,0,1,.807-1.4.4.4,0,0,1,.12-.07c.568-.242,1.136-.482,1.7-.727a.213.213,0,0,1,.209.01c1.326.722,2.669,1.413,4.039,2.05a32.444,32.444,0,0,0,3.9,1.57,11.2,11.2,0,0,0,1.64.4,5.042,5.042,0,0,0,1.983-.136,21.227,21.227,0,0,0,3.375-1.188c1.87-.8,3.679-1.733,5.464-2.709a.221.221,0,0,1,.219-.011q.815.352,1.633.7a.651.651,0,0,1,.2.129,2.372,2.372,0,0,1-.053,3.584,2,2,0,0,1-.347.215,72.109,72.109,0,0,1-6.946,3.565,21.817,21.817,0,0,1-3.479,1.249,5.175,5.175,0,0,1-1.853.184,8.7,8.7,0,0,1-1.338-.27,27.144,27.144,0,0,1-3.946-1.506c-2.2-1-4.326-2.125-6.413-3.334a1.917,1.917,0,0,1-.67-.786,2.329,2.329,0,0,1-.253-.751c-.005-.031,0-.066-.026-.091Z" transform="translate(0 -812.265)" fill="#2ab96d"></path><path id="Path_19788" data-name="Path 19788" d="M15.353,505.687a7.382,7.382,0,0,1-1.754-.342,27.278,27.278,0,0,1-3.633-1.394c-2.244-1.014-4.419-2.164-6.55-3.4a1.8,1.8,0,0,1-.6-.675,2.357,2.357,0,0,1,.507-3.024.526.526,0,0,1,.14-.077c.561-.239,1.122-.477,1.682-.718a.2.2,0,0,1,.2.009c1.333.725,2.681,1.42,4.058,2.059a30.378,30.378,0,0,0,4.219,1.664,8.184,8.184,0,0,0,1.631.332,5.81,5.81,0,0,0,2.027-.266,25.815,25.815,0,0,0,3.758-1.425c1.6-.721,3.151-1.523,4.687-2.364a.27.27,0,0,1,.268-.015c.539.235,1.081.463,1.623.693a.478.478,0,0,1,.13.074,2.378,2.378,0,0,1-.012,3.641,1.374,1.374,0,0,1-.208.132,71.932,71.932,0,0,1-7.2,3.7,22.757,22.757,0,0,1-3.163,1.146,6.693,6.693,0,0,1-1.8.25" transform="translate(-2.42 -485.337)" fill="#2ab96d"></path></g></g></g></svg>