<svg xmlns="http://www.w3.org/2000/svg" xmlns:xlink="http://www.w3.org/1999/xlink" width="36" height="36" viewBox="0 0 36 36"><defs><clipPath id="clip-path"><rect id="Rectangle_581" data-name="Rectangle 581" width="36" height="36" transform="translate(-4.177)" fill="#fff" stroke="#707070" stroke-width="1"></rect></clipPath></defs><g id="Printer" transform="translate(4.177)" clip-path="url(#clip-path)"><g id="Icon_ion-ios-printer" data-name="Icon ion-ios-printer" transform="translate(-4.142 -0.035)"><path id="Path_19782" data-name="Path 19782" d="M9,15.75H27V31.5H9Z" fill="#2ab96d"></path><path id="Path_19783" data-name="Path 19783" d="M8.965,15.785h18v15.75h-18Z" fill="#2ab96d"></path><path id="Path_19784" data-name="Path 19784" d="M7.84,4.535H28.09v2.25H7.84Z" fill="#2ab96d"></path><path id="Path_19785" data-name="Path 19785" d="M30.41,7.91H5.66a2.224,2.224,0,0,0-2.32,2.131V21.178A2.4,2.4,0,0,0,5.66,23.52H7.84V14.66H28.09V23.52h2.32a2.282,2.282,0,0,0,2.18-2.341V10.041A2.1,2.1,0,0,0,30.41,7.91Z" fill="#2ab96d"></path></g></g></svg>