<svg xmlns="http://www.w3.org/2000/svg" xmlns:xlink="http://www.w3.org/1999/xlink" width="124" height="124" viewBox="0 0 124 124"><defs><clipPath id="clip-path"><rect id="Rectangle_634" data-name="Rectangle 634" width="124" height="124" transform="translate(847 3969)" fill="#fff"></rect></clipPath></defs><g id="Touchscreen" transform="translate(-847 -3969)" clip-path="url(#clip-path)"><g id="Display" transform="translate(937.582 3987) rotate(90)"><path id="Path_19536" data-name="Path 19536" d="M44,0Q60.982,0,77.969,0C84.008,0,88,3.985,88,10.02q0,18.266,0,36.532c0,6.037-3.99,10.028-10.022,10.029q-33.972,0-67.944,0C4,56.58,0,52.583,0,46.559Q0,28.293,0,10.027C0,4,4,0,10.024,0Q27.01,0,44,0m-.135,50.294H77.938c2.614,0,3.774-1.159,3.775-3.77q0-18.22,0-36.44c0-2.621-1.16-3.8-3.747-3.8H10.009C7.458,6.288,6.287,7.456,6.287,10q0,18.269,0,36.539c0,2.589,1.175,3.751,3.793,3.751H43.861" transform="translate(0 0)" fill="#011ca3"></path><path id="Path_19537" data-name="Path 19537" d="M39.42,46.168H3.98C1.233,46.168,0,44.949,0,42.233Q0,23.066,0,3.9C0,1.226,1.229,0,3.906,0H75.2c2.714,0,3.931,1.233,3.931,3.983q0,19.115,0,38.23c0,2.739-1.217,3.955-3.96,3.955H39.42M9.891,9.892c2.239,0,4.359.017,6.479,0A3.3,3.3,0,1,0,16.341,3.3q-3.706-.027-7.412,0A5.479,5.479,0,0,0,3.3,8.982c-.015,2.4-.01,4.8,0,7.208a3.306,3.306,0,1,0,6.589.029c.012-2.057,0-4.114,0-6.326M69.239,36.275c-2.242,0-4.333-.013-6.423,0a3.3,3.3,0,1,0,.015,6.588q3.655.024,7.31,0a5.493,5.493,0,0,0,5.689-5.73c.013-2.334.006-4.668,0-7,0-2.258-1.351-3.769-3.332-3.75-1.945.019-3.255,1.507-3.26,3.713,0,2.019,0,4.038,0,6.178" transform="translate(4.435 5.207)" fill="#011ca3"></path><rect id="Rectangle_296" data-name="Rectangle 296" width="88" height="56.582" transform="translate(0)" fill="none"></rect></g></g></svg>