<svg xmlns="http://www.w3.org/2000/svg" width="62.283" height="62.283" viewBox="0 0 62.283 62.283"><g id="Group_45444" data-name="Group 45444" transform="translate(0 62.283) rotate(-90)"><g id="Path_19728" data-name="Path 19728" transform="translate(0 0)" fill="#fff"><path d="M 31.14144515991211 60.28289413452148 C 27.20649528503418 60.28289413452148 23.39031600952148 59.51267623901367 19.79889488220215 57.99363327026367 C 16.32899475097656 56.52599334716797 13.21228504180908 54.42450332641602 10.53533554077148 51.74756622314453 C 7.858395099639893 49.07061386108398 5.756905078887939 45.95390701293945 4.289265155792236 42.48399353027344 C 2.770225048065186 38.89258575439453 2.00000524520874 35.07639694213867 2.00000524520874 31.14144515991211 C 2.00000524520874 27.20649528503418 2.770225048065186 23.39031600952148 4.289265155792236 19.79889488220215 C 5.756905078887939 16.32899475097656 7.858395099639893 13.21228504180908 10.53533554077148 10.53533554077148 C 13.21228504180908 7.858395099639893 16.32899475097656 5.756905078887939 19.79889488220215 4.289265155792236 C 23.39031600952148 2.770225048065186 27.20649528503418 2.00000524520874 31.14144515991211 2.00000524520874 C 35.07639694213867 2.00000524520874 38.89258575439453 2.770225048065186 42.48399353027344 4.289265155792236 C 45.95390701293945 5.756905078887939 49.07061386108398 7.858395099639893 51.74756622314453 10.53533554077148 C 54.42450332641602 13.21228504180908 56.52599334716797 16.32899475097656 57.99363327026367 19.79889488220215 C 59.51267623901367 23.39031600952148 60.28289413452148 27.20649528503418 60.28289413452148 31.14144515991211 C 60.28289413452148 35.07639694213867 59.51267623901367 38.89258575439453 57.99363327026367 42.48399353027344 C 56.52599334716797 45.95390701293945 54.42450332641602 49.07061386108398 51.74756622314453 51.74756622314453 C 49.07061386108398 54.42450332641602 45.95390701293945 56.52599334716797 42.48399353027344 57.99363327026367 C 38.89258575439453 59.51267623901367 35.07639694213867 60.28289413452148 31.14144515991211 60.28289413452148 Z" stroke="none"></path><path d="M 31.14144515991211 4 C 27.47560882568359 4 23.92155075073242 4.717056274414062 20.57799911499023 6.131267547607422 C 17.34649276733398 7.498081207275391 14.44345855712891 9.455635070800781 11.94955062866211 11.94955062866211 C 9.455635070800781 14.44345855712891 7.498081207275391 17.34649276733398 6.131267547607422 20.57799911499023 C 4.717056274414062 23.92155075073242 4 27.47560882568359 4 31.14144515991211 C 4 34.80728149414062 4.717056274414062 38.3613395690918 6.131267547607422 41.70489501953125 C 7.498081207275391 44.93639755249023 9.455635070800781 47.83943176269531 11.94955062866211 50.33335113525391 C 14.44345855712891 52.82725524902344 17.34649276733398 54.78480911254883 20.57799911499023 56.1516227722168 C 23.92155075073242 57.56583404541016 27.47560882568359 58.28289031982422 31.14144515991211 58.28289031982422 C 34.80728149414062 58.28289031982422 38.3613395690918 57.56583404541016 41.70489501953125 56.1516227722168 C 44.93640899658203 54.78480911254883 47.83943176269531 52.8272705078125 50.33335113525391 50.33335113525391 C 52.8272705078125 47.83943176269531 54.78480911254883 44.93640899658203 56.1516227722168 41.70489501953125 C 57.56583404541016 38.3613395690918 58.28289031982422 34.80728149414062 58.28289031982422 31.14144515991211 C 58.28289031982422 27.47560882568359 57.56583404541016 23.92155075073242 56.1516227722168 20.57799911499023 C 54.78480911254883 17.34649276733398 52.82725524902344 14.44345855712891 50.33335113525391 11.94955062866211 C 47.83943176269531 9.455635070800781 44.93639755249023 7.498081207275391 41.70489501953125 6.131267547607422 C 38.3613395690918 4.717056274414062 34.80728149414062 4 31.14144515991211 4 M 31.14144515991211 0 C 48.34039688110352 0 62.28289031982422 13.9425048828125 62.28289031982422 31.14144515991211 C 62.28289031982422 48.34039688110352 48.34039688110352 62.28289031982422 31.14144515991211 62.28289031982422 C 13.9425048828125 62.28289031982422 0 48.34039688110352 0 31.14144515991211 C 0 13.9425048828125 13.9425048828125 0 31.14144515991211 0 Z" stroke="none" fill="#011ca3"></path></g><path id="Path_19480" data-name="Path 19480" d="M27.455,0,13.729,8.97,0,0C0,4.114,0,5.375,0,5.375l13.729,8.87,13.726-8.87" transform="translate(24.019 44.869) rotate(-90)" fill="#011ca3"></path></g></svg>