<svg xmlns="http://www.w3.org/2000/svg" xmlns:xlink="http://www.w3.org/1999/xlink" width="36" height="36" viewBox="0 0 36 36"><defs><clipPath id="clip-path"><rect id="Rectangle_581" data-name="Rectangle 581" width="36" height="36" transform="translate(-4.177)" fill="#fff" stroke="#707070" stroke-width="1"></rect></clipPath></defs><g id="Weight" transform="translate(4.177)" clip-path="url(#clip-path)"><path id="Icon_fa-solid-weight-hanging" data-name="Icon fa-solid-weight-hanging" d="M11.738,5.031a1.677,1.677,0,1,1,1.677,1.677,1.677,1.677,0,0,1-1.677-1.677Zm6.42,1.677A5.031,5.031,0,1,0,8.384,5.031a4.945,4.945,0,0,0,.288,1.677H6.288A2.521,2.521,0,0,0,3.846,8.615L.073,23.708a2.51,2.51,0,0,0,2.442,3.123h21.8A2.516,2.516,0,0,0,26.752,23.7L22.979,8.61a2.512,2.512,0,0,0-2.437-1.9Z" transform="translate(0.411 4.584)" fill="#2ab96d"></path></g></svg>