<svg xmlns="http://www.w3.org/2000/svg" xmlns:xlink="http://www.w3.org/1999/xlink" width="144" height="102" viewBox="0 0 144 102"><defs><clipPath id="clip-path"><rect id="Rectangle_648" data-name="Rectangle 648" width="144" height="102" transform="translate(473 4360)" fill="#fff" opacity="0.58"></rect></clipPath><clipPath id="clip-path-2"><rect id="Rectangle_575" data-name="Rectangle 575" width="96" height="94.98" fill="none" stroke="#707070" stroke-width="1"></rect></clipPath><clipPath id="clip-path-3"><rect id="Rectangle_341" data-name="Rectangle 341" width="59.289" height="59.289" fill="#fff" opacity="0.64"></rect></clipPath><clipPath id="clip-path-4"><rect id="Rectangle_339" data-name="Rectangle 339" width="48.288" height="36.408" fill="#fff"></rect></clipPath></defs><g id="Wifi" transform="translate(-473 -4360)" clip-path="url(#clip-path)"><g id="Mask_Group_793" data-name="Mask Group 793" transform="translate(497 4364)" clip-path="url(#clip-path-2)"><g id="Group_886" data-name="Group 886" transform="translate(4 3.957)"><circle id="Ellipse_92" data-name="Ellipse 92" cx="43.479" cy="43.479" r="43.479" transform="translate(0 0)" fill="#e84b86"></circle><g id="Mask_Group_49" data-name="Mask Group 49" transform="translate(13.34 14.292)" clip-path="url(#clip-path-3)"><g id="Group_742" data-name="Group 742" transform="translate(6.119 11.069)"><g id="Group_741" data-name="Group 741" clip-path="url(#clip-path-4)"><path id="Path_19571" data-name="Path 19571" d="M0,12.454a4.519,4.519,0,0,1,1.292-2.038,36.848,36.848,0,0,1,7.17-5.924A30.826,30.826,0,0,1,38.492,3.38a31.243,31.243,0,0,1,8.948,6.885,3.258,3.258,0,0,1-4.509,4.683c-1.061-.886-1.947-1.96-3.016-2.841A23.571,23.571,0,0,0,27.748,6.758a23.862,23.862,0,0,0-18.07,4.818,40.162,40.162,0,0,0-3.923,3.663,3.539,3.539,0,0,1-2.116,1.12A3.269,3.269,0,0,1,.124,14.129c-.04-.121-.083-.239-.124-.357V12.454" transform="translate(0 0)" fill="#fff"></path><path id="Path_19572" data-name="Path 19572" d="M19.353,4.35a18.629,18.629,0,0,1,13.2,5.669,9.074,9.074,0,0,1,1.732,1.974,3.531,3.531,0,0,1-.763,4.329,3.481,3.481,0,0,1-4.5.166,20.953,20.953,0,0,1-1.625-1.5,11.344,11.344,0,0,0-16.22-.024c-.7.7-1.361,1.439-2.127,2.068a3.559,3.559,0,0,1-4.758-.242,3.492,3.492,0,0,1-.274-4.75,21.344,21.344,0,0,1,9.332-6.7,19.873,19.873,0,0,1,6-.986" transform="translate(5.411 7.331)" fill="#fff"></path><path id="Path_19573" data-name="Path 19573" d="M18.264,15.037a5.68,5.68,0,1,1-5.639-5.709,5.668,5.668,0,0,1,5.639,5.709" transform="translate(11.637 15.72)" fill="#fff"></path></g></g></g></g></g></g></svg>