<svg xmlns="http://www.w3.org/2000/svg" xmlns:xlink="http://www.w3.org/1999/xlink" id="x-Hover" width="24" height="24" viewBox="0 0 24 24"><defs><clipPath id="clip-path"><rect id="Rectangle_484" data-name="Rectangle 484" width="24" height="24" transform="translate(1496.012 11.366)" fill="none" stroke="#707070" stroke-width="1"></rect></clipPath></defs><g id="x" transform="translate(-1496.012 -11.366)" clip-path="url(#clip-path)"><path id="x-social-media-white-icon" d="M13.636,0h2.655l-5.8,6.63,6.824,9.021H11.972L7.787,10.179,3,15.651H.342l6.2-7.091L0,0H5.478L9.261,5ZM12.7,14.062h1.471L4.679,1.506H3.1Z" transform="translate(1499.354 -8.959)" fill="#fff"></path><path id="x-social-media-white-icon-2" data-name="x-social-media-white-icon" d="M13.636,0h2.655l-5.8,6.63,6.824,9.021H11.972L7.787,10.179,3,15.651H.342l6.2-7.091L0,0H5.478L9.261,5ZM12.7,14.062h1.471L4.679,1.506H3.1Z" transform="translate(1499.354 16.041)" fill="#06b96d"></path></g></svg>