<svg xmlns="http://www.w3.org/2000/svg" xmlns:xlink="http://www.w3.org/1999/xlink" id="youtube-Hover" width="24" height="24" viewBox="0 0 24 24"><defs><clipPath id="clip-path"><rect id="Rectangle_482" data-name="Rectangle 482" width="24" height="24" transform="translate(1496.012 11.366)" fill="none" stroke="#707070" stroke-width="1"></rect></clipPath></defs><g id="x" transform="translate(-1496.012 -11.366)" clip-path="url(#clip-path)"><path id="Icon_ion-logo-youtube" data-name="Icon ion-logo-youtube" d="M19.922,7.821a3.045,3.045,0,0,0-2.9-3.18c-2.17-.1-4.383-.141-6.644-.141H9.674c-2.256,0-4.473.039-6.643.141A3.051,3.051,0,0,0,.137,7.829C.039,9.223,0,10.618,0,12.012S.04,14.8.133,16.2a3.055,3.055,0,0,0,2.895,3.192c2.28.106,4.618.153,7,.149s4.713-.042,7-.149a3.055,3.055,0,0,0,2.9-3.192c.094-1.4.137-2.793.133-4.191s-.034-2.79-.128-4.187ZM8.108,15.854v-7.7L13.787,12Z" transform="translate(1497.986 -12.78)" fill="#fff"></path><path id="Icon_ion-logo-youtube-2" data-name="Icon ion-logo-youtube" d="M19.922,7.821a3.045,3.045,0,0,0-2.9-3.18c-2.17-.1-4.383-.141-6.644-.141H9.674c-2.256,0-4.473.039-6.643.141A3.051,3.051,0,0,0,.137,7.829C.039,9.223,0,10.618,0,12.012S.04,14.8.133,16.2a3.055,3.055,0,0,0,2.895,3.192c2.28.106,4.618.153,7,.149s4.713-.042,7-.149a3.055,3.055,0,0,0,2.9-3.192c.094-1.4.137-2.793.133-4.191s-.034-2.79-.128-4.187ZM8.108,15.854v-7.7L13.787,12Z" transform="translate(1497.986 11.472)" fill="#06b96d"></path></g></svg>