<svg width="30" height="30" viewBox="0 0 30 30" fill="none" xmlns="http://www.w3.org/2000/svg">
<rect x="0.3" y="0.3" width="29.4" height="29.4" rx="14.7" stroke="#121212" stroke-width="0.6"/>
<path d="M20.8332 14.1243V17.041C20.8332 19.0827 19.6665 19.9577 17.9165 19.9577H12.0832C10.3332 19.9577 9.1665 19.0827 9.1665 17.041V12.9577C9.1665 10.916 10.3332 10.041 12.0832 10.041H16.1665" stroke="#121212" stroke-width="1.5" stroke-miterlimit="10" stroke-linecap="round" stroke-linejoin="round"/>
<path d="M12.0835 13.25L13.9093 14.7083C14.5102 15.1867 15.496 15.1867 16.0968 14.7083L16.7852 14.16" stroke="#121212" stroke-width="1.5" stroke-miterlimit="10" stroke-linecap="round" stroke-linejoin="round"/>
<path d="M19.3748 12.6667C20.1803 12.6667 20.8332 12.0137 20.8332 11.2083C20.8332 10.4029 20.1803 9.75 19.3748 9.75C18.5694 9.75 17.9165 10.4029 17.9165 11.2083C17.9165 12.0137 18.5694 12.6667 19.3748 12.6667Z" stroke="#121212" stroke-width="1.5" stroke-miterlimit="10" stroke-linecap="round" stroke-linejoin="round"/>
</svg>
