<svg width="30" height="30" viewBox="0 0 30 30" fill="none" xmlns="http://www.w3.org/2000/svg">
<rect x="0.3" y="0.3" width="29.4" height="29.4" rx="14.7" stroke="#121212" stroke-width="0.6"/>
<path d="M20.3702 11.2798C19.6712 11.1303 19.0382 10.7614 18.5636 10.2269C18.0889 9.69249 17.7974 9.0204 17.7315 8.30866V8H15.3203V17.5691C15.3188 17.9928 15.1846 18.4053 14.9366 18.7487C14.6886 19.0922 14.3392 19.3493 13.9375 19.4839C13.5358 19.6185 13.102 19.6239 12.6971 19.4993C12.2922 19.3746 11.9366 19.1263 11.6801 18.7891C11.4196 18.4463 11.2752 18.0294 11.2676 17.5989C11.2601 17.1684 11.3898 16.7467 11.6381 16.395C11.8863 16.0432 12.2402 15.7797 12.6483 15.6426C13.0564 15.5055 13.4976 15.502 13.9079 15.6325V13.1828C12.993 13.0563 12.0615 13.219 11.2436 13.648C10.4257 14.0771 9.76237 14.751 9.34637 15.5756C8.93037 16.4002 8.78252 17.3342 8.92349 18.2469C9.06446 19.1597 9.48721 20.0056 10.1326 20.6662C10.7481 21.296 11.5372 21.728 12.3994 21.9073C13.2615 22.0865 14.1575 22.0047 14.9729 21.6725C15.7884 21.3402 16.4863 20.7724 16.9777 20.0417C17.469 19.311 17.7314 18.4504 17.7315 17.5698V12.6803C18.7059 13.3769 19.8743 13.7505 21.0722 13.7483V11.3526C20.8363 11.3529 20.601 11.3285 20.3702 11.2798Z" fill="#121212"/>
</svg>
