<svg preserveAspectRatio="none" width="100%" height="100%" overflow="visible" style="display: block;" viewBox="0 0 27.4651 26.2422" fill="none" xmlns="http://www.w3.org/2000/svg">
<g id="Group">
<path id="Vector" d="M9.04552 7.92246L1.07052 9.07871L0.929272 9.10746C0.715447 9.16424 0.520522 9.27672 0.364384 9.43347C0.208259 9.59021 0.096522 9.78557 0.040597 9.99962C-0.0153255 10.2137 -0.0134431 10.4387 0.0460594 10.6518C0.105559 10.8649 0.220547 11.0583 0.379272 11.2124L6.15677 16.8362L4.79427 24.7799L4.77802 24.9174C4.76494 25.1386 4.81086 25.3593 4.91108 25.5568C5.01131 25.7544 5.16225 25.9218 5.34845 26.0418C5.53463 26.1619 5.74938 26.2303 5.97071 26.2401C6.19203 26.2498 6.41197 26.2007 6.60802 26.0974L13.7405 22.3474L20.8567 26.0974L20.9817 26.1549C21.1881 26.2362 21.4124 26.2612 21.6315 26.2272C21.8506 26.1932 22.0567 26.1014 22.2287 25.9616C22.4007 25.8216 22.5325 25.6384 22.6104 25.4308C22.6881 25.2231 22.7094 24.9984 22.6717 24.7799L21.308 16.8362L27.088 11.2112L27.1855 11.1049C27.3249 10.9334 27.4161 10.7281 27.4502 10.5097C27.4842 10.2914 27.4599 10.0679 27.3794 9.86212C27.299 9.65632 27.1655 9.47551 26.9924 9.33811C26.8194 9.20071 26.613 9.11164 26.3942 9.07996L18.4192 7.92246L14.8542 0.697462C14.7511 0.488137 14.5914 0.311862 14.3932 0.1886C14.1951 0.0653375 13.9664 0 13.733 0C13.4996 0 13.271 0.0653375 13.0727 0.1886C12.8746 0.311862 12.715 0.488137 12.6117 0.697462L9.04552 7.92246Z" fill="var(--fill-0, #DDDDDD)"/>
</g>
</svg>
