<svg width="28" height="28" viewBox="0 0 28 28" fill="none" xmlns="http://www.w3.org/2000/svg">
<path d="M5.98338 15.3149C6.08553 15.931 6.2562 16.5382 6.49415 17.1192C6.73458 17.7014 7.0373 18.2536 7.39732 18.7607C7.50819 18.9172 7.70752 18.9861 7.89189 18.9298L8.53221 18.7332C8.77763 19.0224 9.04548 19.2929 9.33199 19.5395L9.13391 20.1831C9.07661 20.3684 9.14388 20.5688 9.30085 20.6815C9.81411 21.0496 10.3622 21.3564 10.9291 21.593C11.5021 21.8334 12.1051 22.0087 12.7205 22.1152C12.7454 22.1189 12.7703 22.1214 12.7952 22.1214C12.9584 22.1214 13.1104 22.0313 13.1889 21.8835L13.5041 21.2875C13.8815 21.3175 14.2603 21.3188 14.6377 21.2887L14.9479 21.8798C15.0376 22.0501 15.2282 22.1452 15.4163 22.1127C16.6372 21.9073 17.8207 21.414 18.8396 20.6865C18.9966 20.5751 19.0638 20.3747 19.0078 20.1907L18.8172 19.5583C19.1062 19.3117 19.374 19.0424 19.6207 18.7545L20.2573 18.9511C20.4404 19.0074 20.6372 18.941 20.7506 18.7858C21.1143 18.2812 21.4221 17.729 21.6625 17.1468C21.9017 16.5695 22.0761 15.9648 22.1795 15.3475C22.2119 15.1571 22.1197 14.9668 21.949 14.8754L21.3573 14.5586C21.3872 14.178 21.3884 13.7961 21.3585 13.4192L21.9515 13.1049C22.1222 13.0147 22.2156 12.8244 22.1832 12.6328C22.0798 12.0105 21.9067 11.4045 21.6712 10.8298C21.4382 10.2601 21.1355 9.70665 20.7705 9.18827C20.6596 9.0305 20.4591 8.96163 20.2747 9.01798L19.6331 9.21581C19.3877 8.92658 19.1211 8.65737 18.8346 8.40946L19.0327 7.76588C19.09 7.58057 19.0227 7.38023 18.8657 7.26753C18.3562 6.90192 17.8081 6.59513 17.2363 6.35726C16.6595 6.1156 16.0566 5.9403 15.4449 5.83513C15.2543 5.80382 15.0662 5.89648 14.9752 6.06677L14.66 6.66278C14.2813 6.63273 13.9026 6.63148 13.5264 6.66028L13.2162 6.07055C13.1265 5.90026 12.9384 5.8076 12.7478 5.83765C11.5244 6.04425 10.3409 6.53759 9.32579 7.26506C9.17007 7.3765 9.10156 7.57684 9.15761 7.7609L9.34822 8.39199C9.0592 8.63991 8.79012 8.90911 8.54471 9.19584L7.90688 8.99926C7.725 8.94291 7.52568 9.00927 7.41355 9.16579C7.04979 9.67288 6.74332 10.2238 6.50288 10.8036C6.2637 11.377 6.08928 11.9831 5.98465 12.6029C5.95226 12.7932 6.04444 12.9835 6.21511 13.0737L6.80686 13.3905C6.77696 13.7711 6.77696 14.153 6.80562 14.5299L6.21263 14.8442C6.0432 14.9343 5.94853 15.1234 5.98091 15.315L5.98338 15.3149ZM7.72746 13.1913C7.74989 13.0073 7.65645 12.8282 7.4945 12.7418L6.93018 12.4388C7.02486 11.9956 7.1594 11.5636 7.33256 11.1492C7.50447 10.7309 7.71625 10.3303 7.96293 9.95462L8.57336 10.1437C8.75026 10.1988 8.94085 10.1374 9.05547 9.99218C9.37064 9.59026 9.73565 9.22465 10.143 8.9041C10.2875 8.79016 10.3486 8.59859 10.295 8.42079L10.1131 7.81728C10.8668 7.32518 11.7127 6.97335 12.5872 6.78427L12.8837 7.34771C12.9697 7.51174 13.1491 7.6044 13.3322 7.58311C13.8392 7.52176 14.3549 7.52301 14.867 7.58562C15.0488 7.6069 15.2295 7.51425 15.3154 7.35022L15.6156 6.78177C16.0529 6.87693 16.4827 7.01216 16.8988 7.1862C17.3111 7.35774 17.7098 7.57059 18.0872 7.81728L17.8979 8.43208C17.8431 8.60988 17.9029 8.80269 18.0486 8.91664C18.451 9.23593 18.8147 9.60279 19.1312 10.0098C19.2445 10.1562 19.4364 10.2164 19.6133 10.1625L20.2262 9.97344C20.4729 10.3578 20.6822 10.7585 20.8503 11.1705C21.021 11.5849 21.153 12.0181 21.2477 12.4639L20.6809 12.7644C20.5165 12.8508 20.423 13.0311 20.4455 13.2165C20.5078 13.7223 20.5065 14.2407 20.443 14.7566C20.4206 14.9406 20.5127 15.1197 20.6759 15.2073L21.2415 15.5103C21.1468 15.9511 21.0123 16.3843 20.8404 16.8C20.6672 17.2194 20.4554 17.6189 20.21 17.9945L19.5996 17.8054C19.4227 17.7504 19.2308 17.8117 19.1175 17.957C18.8023 18.3601 18.4373 18.7257 18.0324 19.0438C17.8867 19.1577 17.8256 19.3505 17.8792 19.5283L18.0611 20.1319C17.3049 20.624 16.459 20.977 15.5857 21.1649L15.2892 20.6002C15.2033 20.4361 15.0226 20.3422 14.8408 20.3648C14.3325 20.4261 13.8168 20.4261 13.3085 20.3623C13.1241 20.3397 12.946 20.4324 12.86 20.5964L12.5586 21.1661C12.1188 21.0709 11.6878 20.9357 11.2742 20.7617C10.8643 20.5901 10.4657 20.3785 10.0857 20.1294L10.2751 19.5146C10.3299 19.3368 10.2701 19.1439 10.1243 19.0287C9.72196 18.712 9.3582 18.3438 9.04178 17.9369C8.92841 17.7904 8.73532 17.7303 8.55967 17.7842L7.94799 17.972C7.70507 17.5951 7.49452 17.1932 7.32263 16.7749C7.15196 16.3567 7.01866 15.9235 6.92647 15.4815L7.49328 15.181C7.65772 15.0946 7.75115 14.9143 7.72749 14.7302C7.66644 14.2231 7.66644 13.7048 7.72873 13.1889L7.72746 13.1913Z" fill="#399CDB"/>
<path d="M14.0859 18.3662C16.499 18.3662 18.4547 16.4004 18.4547 13.9751C18.4547 11.5498 16.4989 9.58398 14.0859 9.58398C11.6729 9.58398 9.71582 11.5511 9.71582 13.9751C9.71582 16.4004 11.6717 18.3662 14.0859 18.3662ZM12.287 13.3276L13.8131 14.2704L16.1614 11.7349L16.6298 12.088L14.1557 16.3714L13.0619 15.0967L11.9208 13.7707L12.287 13.3276Z" fill="#399CDB"/>
<path d="M23.936 7.45807C24.9924 7.45807 25.8494 6.59661 25.8494 5.53482C25.8494 4.47303 24.9924 3.61157 23.936 3.61157C22.8795 3.61157 22.0225 4.47303 22.0225 5.53482C22.0225 6.59661 22.8795 7.45807 23.936 7.45807Z" fill="#399CDB"/>
<path d="M12.5326 2.02505C13.0545 1.95743 13.5753 1.92363 14.0922 1.92363C16.4791 1.92363 18.7937 2.63734 20.7856 3.99086C21.0747 3.39735 21.5231 2.89775 22.0763 2.54843C19.2222 0.528759 15.7726 -0.333947 12.2872 0.116831C10.1407 0.394801 8.13264 1.15484 6.37988 2.32305L7.58953 3.82309C9.06451 2.874 10.7426 2.2567 12.5314 2.02505L12.5326 2.02505Z" fill="#399CDB"/>
<path d="M25.172 22.4544C27.3894 19.512 28.3537 15.8808 27.884 12.2147C27.6859 10.6721 27.2412 9.2009 26.581 7.84351C26.1549 8.3356 25.5993 8.70871 24.9652 8.9053C25.4785 10.0159 25.826 11.2104 25.9867 12.4614C26.3903 15.6117 25.5669 18.7296 23.6696 21.2625L23.423 19.2566L21.5244 19.492L22.1735 24.7684L27.4369 24.1086L27.2002 22.2004L25.1733 22.4545L25.172 22.4544Z" fill="#399CDB"/>
<path d="M4.70451 21.1072C3.6481 21.1072 2.79102 21.9686 2.79102 23.0304C2.79102 24.0922 3.6481 24.9537 4.70451 24.9537C5.76092 24.9537 6.618 24.0922 6.618 23.0304C6.618 21.9686 5.76092 21.1072 4.70451 21.1072Z" fill="#399CDB"/>
<path d="M7.94012 24.3865C7.68473 24.9988 7.26242 25.5234 6.73047 25.9028C8.98779 27.3114 11.5279 28.0001 14.0518 28.0001C16.3826 28.0001 18.6997 27.4141 20.7701 26.2772L19.5418 24.7534C15.9441 26.5977 11.548 26.5401 7.94012 24.3865Z" fill="#399CDB"/>
<path d="M2.15023 15.5477C1.79892 12.808 2.37696 10.092 3.78095 7.76459L4.0139 9.65905L5.91244 9.42365L5.26338 4.14722L0 4.80708L0.236696 6.7153L2.33956 6.45236C0.568081 9.22078 -0.171899 12.4926 0.250409 15.7945C0.483368 17.6126 1.05765 19.3317 1.92596 20.8819C2.32336 20.3635 2.86153 19.9615 3.48192 19.7286C2.79552 18.4452 2.33832 17.0354 2.1477 15.5478L2.15023 15.5477Z" fill="#399CDB"/>
</svg>
