<svg width="28" height="28" viewBox="0 0 28 28" fill="none" xmlns="http://www.w3.org/2000/svg">
<path d="M15.9949 23.5851L16.3149 21.6601C16.8299 21.5051 17.3199 21.3001 17.7799 21.0501L19.3648 22.1851C19.5598 22.3301 19.8349 22.3051 20.0098 22.1351L22.1348 20.0101C22.3048 19.8351 22.3298 19.5651 22.1848 19.3651L21.0548 17.7802C21.3098 17.3051 21.5098 16.8152 21.6648 16.3101L23.5798 15.9951C23.8248 15.9551 23.9998 15.7451 23.9998 15.5001V12.5002C23.9998 12.2552 23.8248 12.0452 23.5848 12.0052L21.6598 11.6852C21.5048 11.1702 21.2998 10.6802 21.0498 10.2202L22.1848 8.6352C22.3298 8.4352 22.3048 8.16519 22.1348 7.99021L20.0099 5.86524C19.8349 5.69524 19.5649 5.67024 19.3649 5.81524L17.7799 6.94521C17.3049 6.69021 16.8149 6.49021 16.3099 6.33524L15.9949 4.42024C15.9549 4.17524 15.7449 4.00024 15.4999 4.00024H12.4999C12.2549 4.00024 12.0449 4.17524 12.0049 4.42024L11.6899 6.33524C11.1849 6.49024 10.6949 6.69523 10.2249 6.95024L8.63493 5.81524C8.43493 5.67024 8.16491 5.69524 7.98994 5.86524L5.86496 7.99021C5.69496 8.16521 5.66996 8.4352 5.81496 8.6352L6.94996 10.2252C6.69496 10.6952 6.49496 11.1852 6.34497 11.6852L4.41501 12.0052C4.17501 12.0452 4 12.2552 4 12.5002V15.5002C4 15.7452 4.175 15.9552 4.41501 15.9952L6.33998 16.3152C6.49498 16.8302 6.69998 17.3202 6.94996 17.7802L5.81496 19.3651C5.66997 19.5651 5.69496 19.8352 5.86496 20.0101L7.98994 22.1351C8.16494 22.3051 8.43493 22.3301 8.63493 22.1851L10.2199 21.0551C10.6949 21.3101 11.1849 21.5101 11.6899 21.6651L12.0049 23.5801C12.0449 23.8251 12.2549 24.0001 12.4999 24.0001H15.4999C15.7449 24.0001 15.9549 23.8251 15.9949 23.5851ZM13.9999 19.0001C11.2449 19.0001 8.99993 16.7552 8.99993 14.0002C9.28118 7.36661 18.7199 7.36757 18.9999 14.0002C18.9999 16.7552 16.7549 19.0001 13.9999 19.0001Z" fill="#399CDB"/>
<path d="M14 10.0002C11.795 10.0002 10 11.7952 10 14.0002C10.22 19.3064 17.7798 19.3051 17.9999 14.0002C17.9999 11.7952 16.2049 10.0002 14 10.0002Z" fill="#399CDB"/>
<path d="M16.0753 0.995303C21.6064 1.73904 26.2563 6.39526 27.0051 11.9251C27.1101 12.5664 28.0814 12.4339 27.9951 11.7751C27.6451 9.42514 26.7201 7.24526 25.3001 5.38031C27.3714 5.28031 28.4001 2.57409 26.8801 1.1205C25.4289 -0.393247 22.7189 0.623002 22.6203 2.70049C20.7553 1.27551 18.5752 0.355516 16.2255 0.00550254C15.573 -0.076996 15.4265 0.88404 16.0753 0.995303Z" fill="#399CDB"/>
<path d="M0.425141 12.3451C0.69264 12.3864 0.957649 12.1964 0.995121 11.9251C1.74385 6.39523 6.3938 1.73894 11.925 0.99527C12.5637 0.891521 12.4362 -0.0797295 11.775 0.0052619C9.42496 0.355275 7.24507 1.27527 5.38013 2.70025C5.28138 0.621513 2.57266 -0.390991 1.12032 1.12026C-0.39842 2.57526 0.627812 5.27895 2.70031 5.38007C1.28032 7.24505 0.355334 9.42516 0.00532043 11.7749C-0.0346793 12.0499 0.155143 12.3051 0.425141 12.3451Z" fill="#399CDB"/>
<path d="M27.575 15.6552C27.295 15.6152 27.045 15.8052 27.005 16.0752C26.2563 21.6051 21.6063 26.2614 16.0752 27.0051C15.4789 27.0976 15.5327 27.9963 16.1502 28.0001C18.5264 27.6763 20.7364 26.7338 22.6202 25.3001C22.7202 27.3776 25.4264 28.3926 26.88 26.8801C28.3963 25.4276 27.3763 22.7201 25.3 22.6203C26.72 20.7553 27.645 18.5752 27.995 16.2254C28.035 15.9504 27.845 15.6952 27.575 15.6552Z" fill="#399CDB"/>
<path d="M11.9251 27.0051C6.39395 26.2613 1.74406 21.6051 0.99527 16.0752C0.891521 15.4377 -0.0797295 15.564 0.0052619 16.2252C0.355275 18.5752 1.28026 20.7551 2.70025 22.6201C0.629001 22.7213 -0.399727 25.4263 1.12026 26.8799C2.57526 28.3911 5.28023 27.3786 5.38007 25.2999C7.2638 26.7336 9.4738 27.6774 11.8501 27.9999C12.4601 27.9949 12.5289 27.1026 11.9251 27.0051Z" fill="#399CDB"/>
</svg>
