<svg width="28" height="28" viewBox="0 0 28 28" fill="none" xmlns="http://www.w3.org/2000/svg">
<g clip-path="url(#clip0_2062_10064)">
<mask id="mask0_2062_10064" style="mask-type:luminance" maskUnits="userSpaceOnUse" x="0" y="0" width="28" height="28">
<path d="M28 0H0V28H28V0Z" fill="white"/>
</mask>
<g mask="url(#mask0_2062_10064)">
<path d="M3.5 8.21325C3.5 6.43992 3.66333 5.17992 4.08333 4.28159C4.08333 4.26992 4.08336 4.25825 4.10669 4.24659C4.77169 3.39492 5.94998 3.60492 7.26831 5.01659L7.27999 5.02825C8.23666 6.04325 9.69502 5.96159 10.5234 4.85325L11.7133 3.27825C12.18 2.64825 12.7983 2.33325 13.4167 2.33325C14.035 2.33325 14.6533 2.64825 15.12 3.27825L16.2983 4.84159C17.1383 5.96159 18.6083 6.04325 19.565 5.01659C20.37 4.15325 21.1167 3.74492 21.735 3.74492C22.1317 3.74492 22.47 3.91992 22.7267 4.24659C22.75 4.25825 22.75 4.26992 22.75 4.28159C23.17 5.17992 23.3333 6.43992 23.3333 8.21325V19.7866C23.3333 21.5599 23.17 22.8199 22.75 23.7183C22.75 23.7299 22.7383 23.7533 22.7267 23.7649C22.47 24.0916 22.1317 24.2549 21.735 24.2549C21.1167 24.2549 20.37 23.8466 19.565 22.9833C18.6083 21.9566 17.1383 22.0383 16.2983 23.1583L15.12 24.7216C14.6533 25.3516 14.035 25.6666 13.4167 25.6666C12.7983 25.6666 12.18 25.3516 11.7133 24.7216L10.5234 23.1466C9.69502 22.0383 8.23666 21.9566 7.27999 22.9716L7.26831 22.9833C5.94998 24.3949 4.78336 24.6049 4.10669 23.7649C4.09502 23.7533 4.08333 23.7299 4.08333 23.7183C3.66333 22.8199 3.5 21.5599 3.5 19.7866V12.7983" stroke="#399CDB" stroke-width="1.75" stroke-linecap="round" stroke-linejoin="round"/>
<path d="M17.5 11.9583H18.6667" stroke="#399CDB" stroke-width="1.75" stroke-linecap="round" stroke-linejoin="round"/>
<path d="M9.33301 11.9583H13.9997" stroke="#399CDB" stroke-width="1.75" stroke-linecap="round" stroke-linejoin="round"/>
<path d="M9.33301 16.0415H16.333" stroke="#399CDB" stroke-width="1.75" stroke-linecap="round" stroke-linejoin="round"/>
</g>
</g>
<defs>
<clipPath id="clip0_2062_10064">
<rect width="28" height="28" fill="white"/>
</clipPath>
</defs>
</svg>
