<svg width="60" height="60" viewBox="0 0 60 60" fill="none" xmlns="http://www.w3.org/2000/svg">
<path d="M30.171 9.42847C18.8568 9.42847 9.59961 17.8285 9.59961 28.2856C9.59961 34.2856 12.6853 39.4285 17.3139 43.1999V50.3999L24.3425 46.457C26.0568 46.9713 28.2853 47.1428 30.3425 47.1428C41.4853 47.1428 50.7425 38.5713 50.7425 28.1142C50.571 17.8285 41.3139 9.42847 30.171 9.42847ZM32.0568 35.1428L26.7425 29.3142L16.6282 35.1428L27.771 23.1428L33.2568 28.6285L43.371 22.7999L32.0568 35.1428Z" fill="white"/>
<path fill-rule="evenodd" clip-rule="evenodd" d="M30.171 9.42847C18.8568 9.42847 9.59961 17.8285 9.59961 28.2856C9.59961 34.2856 12.6853 39.4285 17.3139 43.1999V50.3999L24.3425 46.457C26.0568 46.9713 28.2853 47.1428 30.3425 47.1428C41.4853 47.1428 50.7425 38.5713 50.7425 28.1142C50.571 17.8285 41.3139 9.42847 30.171 9.42847ZM32.0568 35.1428L26.7425 29.3142L16.6282 35.1428L27.771 23.1428L33.2568 28.6285L43.371 22.7999L32.0568 35.1428Z" fill="white"/>
</svg>
