<svg width="28" height="28" viewBox="0 0 28 28" fill="none" xmlns="http://www.w3.org/2000/svg">
<path d="M28 7.48812V19.2093C28 21.1848 26.3933 22.7903 24.4191 22.7903H21.815C21.2753 22.7903 20.8382 22.3532 20.8382 21.8135C20.8382 21.2739 21.2753 20.8368 21.815 20.8368H24.4191C25.3165 20.8368 26.0466 20.1067 26.0466 19.2093V11.0692H23.1164C22.5768 11.0692 22.1397 10.6321 22.1397 10.0924C22.1397 9.55273 22.5768 9.11564 23.1164 9.11564H26.0466V7.48812C26.0466 6.59072 25.3165 5.8606 24.4191 5.8606H23.1164C22.5768 5.8606 22.1397 5.42351 22.1397 4.88384C22.1397 4.34417 22.5768 3.90708 23.1164 3.90708H24.4191C26.3945 3.90708 28 5.51384 28 7.48812ZM20.1863 3.58107V14.2448C20.1863 15.0506 20.0569 15.8479 19.8017 16.6135L19.1668 18.5157C18.9788 19.081 18.8836 19.6695 18.8836 20.2653V24.4177C18.8836 26.3932 17.2769 27.9988 15.3027 27.9988L4.88357 28C2.90816 28 1.30269 26.3932 1.30269 24.419V20.2665C1.30269 19.6695 1.20746 19.081 1.01944 18.5169L0.384592 16.6147C0.129424 15.8504 0 15.0531 0 14.246V3.58104C0 1.60555 1.60669 0 3.58088 0H16.6042C18.5796 0 20.1851 1.60677 20.1851 3.58104L20.1863 3.58107ZM18.2328 3.58107C18.2328 2.68367 17.5028 1.95355 16.6054 1.95355L3.58209 1.95233C2.68473 1.95233 1.95465 2.68245 1.95465 3.57985V14.2436C1.95465 14.8407 2.04988 15.4291 2.2379 15.9932L2.87275 17.8955C3.12792 18.6598 3.25734 19.4571 3.25734 20.2641V24.4165C3.25734 25.3139 3.98742 26.044 4.88478 26.044H15.3027C16.2 26.044 16.9301 25.3139 16.9301 24.4165V20.2641C16.9301 19.4583 17.0595 18.661 17.3147 17.8955L17.9496 15.9932C18.1376 15.4279 18.2328 14.8394 18.2328 14.2436L18.2328 3.58107ZM16.2794 6.18535V8.78964C16.2794 10.046 15.2563 11.0692 14 11.0692H6.18625C4.92996 11.0692 3.90683 10.046 3.90683 8.78964V6.18535C3.90683 4.929 4.92993 3.90583 6.18625 3.90583H14C15.2563 3.90583 16.2794 4.92897 16.2794 6.18535ZM14.326 6.18535C14.326 6.00587 14.1795 5.85935 14 5.85935H6.18625C6.00678 5.85935 5.86027 6.00587 5.86027 6.18535V8.78964C5.86027 8.96912 6.00677 9.11564 6.18625 9.11564H14C14.1795 9.11564 14.326 8.96913 14.326 8.78964V6.18535ZM6.18625 19.2093C5.46714 19.2093 4.88355 19.7929 4.88355 20.512C4.88355 21.2312 5.46714 21.8148 6.18625 21.8148C6.90537 21.8148 7.48896 21.2312 7.48896 20.512C7.48896 19.7929 6.90537 19.2093 6.18625 19.2093ZM10.0931 19.2093C9.37401 19.2093 8.79041 19.7929 8.79041 20.512C8.79041 21.2312 9.37401 21.8148 10.0931 21.8148C10.8122 21.8148 11.3958 21.2312 11.3958 20.512C11.3958 19.7929 10.8122 19.2093 10.0931 19.2093ZM14 19.2093C13.2809 19.2093 12.6973 19.7929 12.6973 20.512C12.6973 21.2312 13.2809 21.8148 14 21.8148C14.7191 21.8148 15.3027 21.2312 15.3027 20.512C15.3027 19.7929 14.7191 19.2093 14 19.2093ZM6.18625 13.9995C5.46714 13.9995 4.88355 14.5831 4.88355 15.3022C4.88355 16.0214 5.46714 16.605 6.18625 16.605C6.90537 16.605 7.48896 16.0214 7.48896 15.3022C7.48896 14.5831 6.90537 13.9995 6.18625 13.9995ZM10.0931 13.9995C9.37401 13.9995 8.79041 14.5831 8.79041 15.3022C8.79041 16.0214 9.37401 16.605 10.0931 16.605C10.8122 16.605 11.3958 16.0214 11.3958 15.3022C11.3958 14.5831 10.8122 13.9995 10.0931 13.9995ZM14 13.9995C13.2809 13.9995 12.6973 14.5831 12.6973 15.3022C12.6973 16.0214 13.2809 16.605 14 16.605C14.7191 16.605 15.3027 16.0214 15.3027 15.3022C15.3027 14.5831 14.7191 13.9995 14 13.9995Z" fill="#399CDB"/>
</svg>
