<svg preserveAspectRatio="none" width="100%" height="100%" overflow="visible" style="display: block;" viewBox="0 0 16 16" fill="none" xmlns="http://www.w3.org/2000/svg">
<g id="sms-notification">
<path id="Vector" d="M14.6673 6.99967V10.333C14.6673 12.6663 13.334 13.6663 11.334 13.6663H4.66732C2.66732 13.6663 1.33398 12.6663 1.33398 10.333V5.66634C1.33398 3.33301 2.66732 2.33301 4.66732 2.33301H9.33398" stroke="var(--stroke-0, #399CDB)" stroke-miterlimit="10" stroke-linecap="round" stroke-linejoin="round"/>
<path id="Vector_2" d="M4.66602 6L6.75269 7.66667C7.43935 8.21333 8.56602 8.21333 9.25269 7.66667L10.0393 7.04" stroke="var(--stroke-0, #399CDB)" stroke-miterlimit="10" stroke-linecap="round" stroke-linejoin="round"/>
<path id="Vector_3" d="M13.0007 5.33333C13.9211 5.33333 14.6673 4.58714 14.6673 3.66667C14.6673 2.74619 13.9211 2 13.0007 2C12.0802 2 11.334 2.74619 11.334 3.66667C11.334 4.58714 12.0802 5.33333 13.0007 5.33333Z" stroke="var(--stroke-0, #399CDB)" stroke-miterlimit="10" stroke-linecap="round" stroke-linejoin="round"/>
<g id="Vector_4" opacity="0">
</g>
</g>
</svg>
