<svg preserveAspectRatio="none" width="100%" height="100%" overflow="visible" style="display: block;" viewBox="0 0 30 30" fill="none" xmlns="http://www.w3.org/2000/svg">
<g id="Item &#226;&#134;&#146; Link">
<rect x="0.3" y="0.3" width="29.4" height="29.4" rx="14.7" stroke="var(--stroke-0, #121212)" stroke-width="0.6"/>
<path id="Vector" d="M20.37 11.2798C19.6711 11.1303 19.0381 10.7614 18.5635 10.2269C18.0888 9.69249 17.7973 9.0204 17.7314 8.30866V8H15.3202V17.5691C15.3187 17.9928 15.1845 18.4053 14.9365 18.7487C14.6885 19.0922 14.339 19.3493 13.9374 19.4839C13.5357 19.6185 13.1019 19.6239 12.697 19.4993C12.2921 19.3746 11.9364 19.1263 11.68 18.7891C11.4195 18.4463 11.2751 18.0294 11.2675 17.5989C11.2599 17.1684 11.3897 16.7467 11.638 16.395C11.8862 16.0432 12.2401 15.7797 12.6482 15.6426C13.0563 15.5055 13.4975 15.502 13.9078 15.6325V13.1828C12.9929 13.0563 12.0614 13.219 11.2435 13.648C10.4256 14.0771 9.76226 14.751 9.34626 15.5756C8.93026 16.4002 8.78241 17.3342 8.92338 18.2469C9.06435 19.1597 9.48709 20.0056 10.1325 20.6662C10.748 21.296 11.5371 21.728 12.3992 21.9073C13.2614 22.0865 14.1573 22.0047 14.9728 21.6725C15.7883 21.3402 16.4862 20.7724 16.9775 20.0417C17.4689 19.311 17.7313 18.4504 17.7314 17.5698V12.6803C18.7058 13.3769 19.8742 13.7505 21.0721 13.7483V11.3526C20.8361 11.3529 20.6009 11.3285 20.37 11.2798Z" fill="var(--fill-0, #121212)"/>
</g>
</svg>
