<svg preserveAspectRatio="none" width="100%" height="100%" overflow="visible" style="display: block;" viewBox="0 0 28 28" fill="none" xmlns="http://www.w3.org/2000/svg">
<g id="Group 1707479724">
<path id="Vector" d="M5.98325 15.315C6.08541 15.9311 6.25608 16.5383 6.49403 17.1193C6.73446 17.7016 7.03717 18.2538 7.3972 18.7609C7.50807 18.9174 7.70739 18.9862 7.89177 18.9299L8.53209 18.7333C8.77751 19.0225 9.04535 19.293 9.33187 19.5397L9.13379 20.1832C9.07649 20.3686 9.14376 20.5689 9.30073 20.6816C9.81399 21.0497 10.3621 21.3565 10.9289 21.5931C11.502 21.8335 12.105 22.0089 12.7204 22.1153C12.7453 22.119 12.7702 22.1215 12.7951 22.1215C12.9583 22.1215 13.1103 22.0314 13.1888 21.8836L13.504 21.2876C13.8814 21.3177 14.2601 21.3189 14.6376 21.2889L14.9478 21.8799C15.0375 22.0502 15.2281 22.1453 15.4162 22.1128C16.6371 21.9074 17.8206 21.4141 18.8395 20.6866C18.9964 20.5752 19.0637 20.3748 19.0076 20.1908L18.817 19.5584C19.1061 19.3118 19.3739 19.0426 19.6205 18.7546L20.2571 18.9512C20.4403 19.0075 20.6371 18.9412 20.7505 18.7859C21.1142 18.2813 21.4219 17.7291 21.6624 17.1469C21.9016 16.5696 22.076 15.9649 22.1794 15.3476C22.2118 15.1573 22.1196 14.9669 21.9489 14.8755L21.3571 14.5587C21.387 14.1781 21.3883 13.7962 21.3584 13.4193L21.9514 13.105C22.1221 13.0149 22.2155 12.8245 22.1831 12.633C22.0797 12.0107 21.9065 11.4046 21.6711 10.8299C21.4381 10.2602 21.1354 9.70677 20.7704 9.18839C20.6595 9.03062 20.459 8.96175 20.2746 9.0181L19.633 9.21593C19.3876 8.9267 19.121 8.65749 18.8345 8.40958L19.0326 7.766C19.0899 7.58068 19.0226 7.38035 18.8656 7.26765C18.3561 6.90204 17.808 6.59525 17.2362 6.35738C16.6594 6.11572 16.0564 5.94042 15.4447 5.83525C15.2541 5.80394 15.066 5.8966 14.9751 6.06689L14.6599 6.6629C14.2812 6.63285 13.9025 6.6316 13.5263 6.6604L13.2161 6.07067C13.1264 5.90038 12.9383 5.80772 12.7476 5.83777C11.5243 6.04437 10.3408 6.53771 9.32567 7.26518C9.16995 7.37662 9.10143 7.57696 9.15749 7.76102L9.3481 8.39211C9.05908 8.64003 8.78999 8.90923 8.54459 9.19596L7.90676 8.99938C7.72488 8.94303 7.52556 9.00939 7.41343 9.16591C7.04967 9.673 6.74319 10.224 6.50276 10.8037C6.26358 11.3772 6.08916 11.9832 5.98453 12.603C5.95214 12.7933 6.04432 12.9836 6.21499 13.0738L6.80674 13.3906C6.77684 13.7712 6.77684 14.1531 6.8055 14.53L6.2125 14.8443C6.04308 14.9344 5.9484 15.1235 5.98079 15.3151L5.98325 15.315ZM7.72734 13.1914C7.74976 13.0074 7.65633 12.8283 7.49438 12.7419L6.93006 12.4389C7.02474 11.9957 7.15928 11.5637 7.33244 11.1493C7.50435 10.7311 7.71612 10.3304 7.9628 9.95474L8.57324 10.1438C8.75014 10.1989 8.94073 10.1375 9.05534 9.9923C9.37052 9.59037 9.73553 9.22476 10.1429 8.90422C10.2874 8.79028 10.3485 8.59871 10.2949 8.42091L10.113 7.8174C10.8667 7.3253 11.7126 6.97347 12.5871 6.78439L12.8836 7.34783C12.9695 7.51186 13.1489 7.60452 13.332 7.58323C13.8391 7.52188 14.3548 7.52313 14.8668 7.58574C15.0487 7.60702 15.2293 7.51437 15.3153 7.35034L15.6155 6.78189C16.0528 6.87705 16.4826 7.01228 16.8986 7.18632C17.311 7.35786 17.7096 7.57071 18.0871 7.8174L17.8978 8.4322C17.8429 8.61 17.9027 8.80281 18.0485 8.91676C18.4509 9.23605 18.8146 9.60291 19.1311 10.0099C19.2444 10.1564 19.4363 10.2165 19.6132 10.1626L20.2261 9.97356C20.4727 10.358 20.682 10.7586 20.8502 11.1706C21.0209 11.585 21.1529 12.0183 21.2476 12.464L20.6808 12.7645C20.5164 12.8509 20.4229 13.0312 20.4453 13.2166C20.5076 13.7224 20.5064 14.2408 20.4429 14.7567C20.4204 14.9407 20.5126 15.1198 20.6758 15.2074L21.2414 15.5104C21.1467 15.9512 21.0122 16.3844 20.8402 16.8001C20.6671 17.2196 20.4553 17.619 20.2099 17.9946L19.5994 17.8056C19.4225 17.7505 19.2307 17.8118 19.1173 17.9571C18.8022 18.3602 18.4372 18.7259 18.0323 19.0439C17.8865 19.1578 17.8255 19.3507 17.8791 19.5285L18.0609 20.132C17.3048 20.6241 16.4589 20.9772 15.5856 21.165L15.2891 20.6003C15.2032 20.4363 15.0225 20.3424 14.8407 20.3649C14.3324 20.4262 13.8167 20.4262 13.3084 20.3624C13.124 20.3398 12.9459 20.4325 12.8599 20.5965L12.5584 21.1662C12.1187 21.0711 11.6876 20.9358 11.2741 20.7618C10.8642 20.5903 10.4656 20.3787 10.0856 20.1295L10.275 19.5147C10.3298 19.3369 10.27 19.1441 10.1242 19.0289C9.72184 18.7121 9.35808 18.344 9.04165 17.937C8.92829 17.7905 8.7352 17.7304 8.55955 17.7843L7.94787 17.9721C7.70494 17.5952 7.4944 17.1933 7.32251 16.7751C7.15184 16.3569 7.01854 15.9236 6.92635 15.4816L7.49316 15.1811C7.6576 15.0947 7.75103 14.9144 7.72736 14.7304C7.66632 14.2233 7.66632 13.7049 7.72861 13.189L7.72734 13.1914Z" fill="var(--fill-0, #0E0E0E)"/>
<path id="Vector_2" d="M14.086 18.3663C16.499 18.3663 18.4548 16.4004 18.4548 13.9752C18.4548 11.5499 16.499 9.58406 14.086 9.58406C11.673 9.58406 9.71588 11.5511 9.71588 13.9752C9.71588 16.4005 11.6717 18.3663 14.086 18.3663ZM12.2871 13.3277L13.8132 14.2705L16.1615 11.735L16.6299 12.0881L14.1558 16.3715L13.062 15.0968L11.9209 13.7708L12.2871 13.3277Z" fill="var(--fill-0, #0E0E0E)"/>
<path id="Vector_3" d="M23.936 7.45795C24.9924 7.45795 25.8494 6.5965 25.8494 5.5347C25.8494 4.47291 24.9924 3.61145 23.936 3.61145C22.8795 3.61145 22.0225 4.47291 22.0225 5.5347C22.0225 6.5965 22.8795 7.45795 23.936 7.45795Z" fill="var(--fill-0, #0E0E0E)"/>
<path id="Vector_4" d="M12.5325 2.02505C13.0545 1.95743 13.5752 1.92363 14.0922 1.92363C16.4791 1.92363 18.7936 2.63734 20.7856 3.99086C21.0746 3.39735 21.5231 2.89775 22.0762 2.54843C19.2222 0.528759 15.7725 -0.333947 12.2871 0.116831C10.1406 0.394801 8.13258 1.15484 6.37982 2.32305L7.58947 3.82309C9.06445 2.874 10.7425 2.2567 12.5314 2.02505L12.5325 2.02505Z" fill="var(--fill-0, #0E0E0E)"/>
<path id="Vector_5" d="M25.1717 22.4545C27.3892 19.512 28.3534 15.8808 27.8838 12.2148C27.6857 10.6721 27.241 9.20093 26.5807 7.84353C26.1547 8.33563 25.5991 8.70874 24.965 8.90532C25.4782 10.0159 25.8258 11.2105 25.9865 12.4614C26.3901 15.6117 25.5667 18.7296 23.6694 21.2625L23.4227 19.2566L21.5242 19.492L22.1732 24.7685L27.4366 24.1086L27.1999 22.2004L25.173 22.4546L25.1717 22.4545Z" fill="var(--fill-0, #0E0E0E)"/>
<path id="Vector_6" d="M4.70408 21.1072C3.64767 21.1072 2.79059 21.9687 2.79059 23.0305C2.79059 24.0923 3.64767 24.9537 4.70408 24.9537C5.76049 24.9537 6.61758 24.0923 6.61758 23.0305C6.61758 21.9687 5.76049 21.1072 4.70408 21.1072Z" fill="var(--fill-0, #0E0E0E)"/>
<path id="Vector_7" d="M7.94048 24.3864C7.6851 24.9987 7.26279 25.5233 6.73083 25.9027C8.98815 27.3113 11.5283 28 14.0522 28C16.383 28 18.7001 27.414 20.7705 26.2771L19.5421 24.7533C15.9444 26.5976 11.5484 26.54 7.94048 24.3864Z" fill="var(--fill-0, #0E0E0E)"/>
<path id="Vector_8" d="M2.15023 15.5478C1.79892 12.8081 2.37696 10.0922 3.78095 7.7647L4.0139 9.65916L5.91244 9.42377L5.26338 4.14733L0 4.8072L0.236696 6.71541L2.33956 6.45247C0.568081 9.22089 -0.171899 12.4928 0.250409 15.7947C0.483368 17.6127 1.05765 19.3318 1.92596 20.882C2.32336 20.3636 2.86153 19.9617 3.48192 19.7288C2.79552 18.4453 2.33832 17.0355 2.1477 15.5479L2.15023 15.5478Z" fill="var(--fill-0, #0E0E0E)"/>
</g>
</svg>
