<svg preserveAspectRatio="none" width="100%" height="100%" overflow="visible" style="display: block;" viewBox="0 0 60 60" fill="none" xmlns="http://www.w3.org/2000/svg">
<g id="Frame">
<path id="Vector" d="M30 5C16.225 5 5 16.225 5 30C5 43.775 16.225 55 30 55C43.775 55 55 43.775 55 30C55 16.225 43.775 5 30 5ZM34.475 37.5C35.2 38.225 35.2 39.425 34.475 40.15C34.1 40.525 33.625 40.7 33.15 40.7C32.675 40.7 32.2 40.525 31.825 40.15L23 31.325C22.275 30.6 22.275 29.4 23 28.675L31.825 19.85C32.55 19.125 33.75 19.125 34.475 19.85C35.2 20.575 35.2 21.775 34.475 22.5L26.975 30L34.475 37.5Z" fill="var(--fill-0, #399CDB)"/>
</g>
</svg>
