<svg preserveAspectRatio="none" width="100%" height="100%" overflow="visible" style="display: block;" viewBox="0 0 23.9167 25.0811" fill="none" xmlns="http://www.w3.org/2000/svg">
<g id="Group">
<path id="Vector" d="M2.59025 19.5394C2.59025 23.0394 3.75692 24.2061 7.25692 24.2061H16.5902C20.0902 24.2061 21.2569 23.0394 21.2569 19.5394V10.2061H2.59025V14.6861" stroke="var(--stroke-0, #0E0E0E)" stroke-width="1.75" stroke-miterlimit="10" stroke-linecap="round" stroke-linejoin="round"/>
<path id="Vector_2" d="M23.0417 6.70605V7.87272C23.0417 9.15606 22.4233 10.2061 20.7083 10.2061H3.20833C1.42333 10.2061 0.875 9.15606 0.875 7.87272V6.70605C0.875 5.42272 1.42333 4.37272 3.20833 4.37272H20.7083C22.4233 4.37272 23.0417 5.42272 23.0417 6.70605Z" stroke="var(--stroke-0, #0E0E0E)" stroke-width="1.75" stroke-miterlimit="10" stroke-linecap="round" stroke-linejoin="round"/>
<path id="Vector_3" d="M11.5381 4.37208H5.09808C4.70142 3.94042 4.71308 3.27542 5.13308 2.85542L6.78975 1.19875C7.22142 0.767083 7.93308 0.767083 8.36475 1.19875L11.5381 4.37208Z" stroke="var(--stroke-0, #0E0E0E)" stroke-width="1.75" stroke-miterlimit="10" stroke-linecap="round" stroke-linejoin="round"/>
<path id="Vector_4" d="M18.8068 4.37208H12.3668L15.5401 1.19875C15.9718 0.767083 16.6834 0.767083 17.1151 1.19875L18.7718 2.85542C19.1918 3.27542 19.2034 3.94042 18.8068 4.37208Z" stroke="var(--stroke-0, #0E0E0E)" stroke-width="1.75" stroke-miterlimit="10" stroke-linecap="round" stroke-linejoin="round"/>
<path id="Vector_5" d="M8.38827 10.2061V16.2027C8.38827 17.1361 9.41493 17.6844 10.1966 17.1827L11.2932 16.4594C11.6899 16.2027 12.1916 16.2027 12.5766 16.4594L13.6149 17.1594C14.3849 17.6727 15.4232 17.1244 15.4232 16.1911V10.2061H8.38827Z" stroke="var(--stroke-0, #0E0E0E)" stroke-width="1.75" stroke-miterlimit="10" stroke-linecap="round" stroke-linejoin="round"/>
</g>
</svg>
