<svg preserveAspectRatio="none" width="100%" height="100%" overflow="visible" style="display: block;" viewBox="0 0 21.9721 20.9936" fill="none" xmlns="http://www.w3.org/2000/svg">
<g id="Group">
<path id="Vector" d="M7.23642 6.33797L0.856418 7.26297L0.743418 7.28597C0.572358 7.33139 0.416418 7.42138 0.291508 7.54678C0.166608 7.67217 0.0772176 7.82846 0.0324776 7.9997C-0.0122604 8.17094 -0.0107545 8.35098 0.0368475 8.52146C0.0844475 8.69196 0.176437 8.84666 0.303418 8.96996L4.92542 13.469L3.83542 19.824L3.82242 19.934C3.81195 20.1109 3.84869 20.2875 3.92887 20.4455C4.00905 20.6036 4.1298 20.7375 4.27876 20.8335C4.42771 20.9296 4.59951 20.9843 4.77657 20.9921C4.95363 20.9999 5.12958 20.9606 5.28642 20.878L10.9924 17.878L16.6854 20.878L16.7854 20.924C16.9505 20.989 17.1299 21.009 17.3052 20.9818C17.4805 20.9546 17.6454 20.8812 17.783 20.7693C17.9206 20.6573 18.026 20.5108 18.0883 20.3447C18.1505 20.1785 18.1675 19.9988 18.1374 19.824L17.0464 13.469L21.6704 8.96896L21.7484 8.88396C21.8599 8.74676 21.9329 8.58246 21.9602 8.40777C21.9874 8.23311 21.9679 8.05435 21.9035 7.8897C21.8392 7.72506 21.7324 7.58041 21.5939 7.47049C21.4555 7.36057 21.2904 7.28931 21.1154 7.26397L14.7354 6.33797L11.8834 0.55797C11.8009 0.39051 11.6731 0.24949 11.5146 0.15088C11.3561 0.05227 11.1731 0 10.9864 0C10.7997 0 10.6168 0.05227 10.4582 0.15088C10.2997 0.24949 10.172 0.39051 10.0894 0.55797L7.23642 6.33797Z" fill="var(--fill-0, #F8C317)"/>
</g>
</svg>
