<svg preserveAspectRatio="none" width="100%" height="100%" overflow="visible" style="display: block;" viewBox="0 0 28.0003 28.0001" fill="none" xmlns="http://www.w3.org/2000/svg">
<g id="Group 1707479723">
<path id="Vector" d="M15.9949 23.585L16.3149 21.66C16.8299 21.505 17.3199 21.3 17.7799 21.0501L19.3649 22.1851C19.5599 22.3301 19.8349 22.3051 20.0098 22.1351L22.1348 20.0101C22.3048 19.8351 22.3298 19.5651 22.1848 19.3651L21.0548 17.7801C21.3098 17.3051 21.5099 16.8151 21.6648 16.3101L23.5798 15.9951C23.8248 15.9551 23.9998 15.7451 23.9998 15.5001V12.5001C23.9998 12.2551 23.8248 12.0451 23.5848 12.0051L21.6598 11.6851C21.5048 11.1701 21.2998 10.6801 21.0499 10.2201L22.1849 8.63516C22.3299 8.43516 22.3049 8.16515 22.1349 7.99017L20.0099 5.8652C19.8349 5.6952 19.5649 5.6702 19.3649 5.8152L17.7799 6.94517C17.3049 6.69017 16.8149 6.49017 16.3099 6.3352L15.9949 4.4202C15.9549 4.1752 15.7449 4.0002 15.4999 4.0002H12.4999C12.2549 4.0002 12.0449 4.1752 12.0049 4.4202L11.6899 6.3352C11.1849 6.4902 10.6949 6.69519 10.2249 6.9502L8.63494 5.8152C8.43494 5.6702 8.16493 5.6952 7.98995 5.8652L5.86498 7.99017C5.69498 8.16518 5.66998 8.43516 5.81498 8.63516L6.94997 10.2252C6.69498 10.6952 6.49497 11.1852 6.34499 11.6852L4.41502 12.0052C4.17502 12.0452 4.00001 12.2552 4.00001 12.5002V15.5001C4.00001 15.7451 4.17501 15.9551 4.41502 15.9951L6.34 16.3151C6.495 16.8301 6.69999 17.3201 6.94997 17.7801L5.81498 19.3651C5.66998 19.5651 5.69498 19.8351 5.86498 20.0101L7.98995 22.1351C8.16495 22.3051 8.43494 22.3301 8.63494 22.1851L10.2199 21.0551C10.6949 21.3101 11.1849 21.5101 11.6899 21.6651L12.0049 23.5801C12.0449 23.8251 12.2549 24.0001 12.4999 24.0001H15.4999C15.7449 24.0001 15.9549 23.825 15.9949 23.585ZM13.9999 19.0001C11.2449 19.0001 8.99995 16.7551 8.99995 14.0001C9.2812 7.36657 18.7199 7.36753 18.9999 14.0001C18.9999 16.7551 16.7549 19.0001 13.9999 19.0001Z" fill="var(--fill-0, white)"/>
<path id="Vector_2" d="M14.0001 10.0002C11.7951 10.0002 10.0001 11.7952 10.0001 14.0001C10.2201 19.3063 17.7799 19.305 18 14.0001C18 11.7952 16.205 10.0002 14.0001 10.0002Z" fill="var(--fill-0, white)"/>
<path id="Vector_3" d="M16.0749 0.995244C21.6061 1.73898 26.256 6.3952 27.0048 11.9251C27.1098 12.5663 28.081 12.4338 27.9948 11.7751C27.6448 9.42509 26.7198 7.2452 25.2998 5.38025C27.371 5.28025 28.3998 2.57403 26.8798 1.12044C25.4285 -0.393305 22.7185 0.622943 22.62 2.70043C20.755 1.27545 18.5749 0.355457 16.2251 0.00544395C15.5726 -0.0770546 15.4262 0.883981 16.0749 0.995244Z" fill="var(--fill-0, white)"/>
<path id="Vector_4" d="M0.425145 12.3451C0.692644 12.3864 0.957653 12.1964 0.995125 11.9251C1.74386 6.39523 6.39381 1.73894 11.925 0.99527C12.5637 0.891521 12.4362 -0.0797295 11.775 0.0052619C9.42497 0.355275 7.24508 1.27527 5.38013 2.70025C5.28138 0.621513 2.57267 -0.390991 1.12032 1.12026C-0.398417 2.57526 0.627816 5.27895 2.70031 5.38007C1.28032 7.24505 0.355338 9.42516 0.00532441 11.7749C-0.0346753 12.0499 0.155147 12.3051 0.425145 12.3451Z" fill="var(--fill-0, white)"/>
<path id="Vector_5" d="M27.575 15.6552C27.295 15.6152 27.045 15.8052 27.005 16.0752C26.2563 21.605 21.6063 26.2613 16.0752 27.005C15.4789 27.0975 15.5327 27.9963 16.1502 28C18.5264 27.6763 20.7364 26.7338 22.6202 25.3C22.7202 27.3775 25.4264 28.3925 26.88 26.88C28.3963 25.4275 27.3763 22.72 25.3 22.6202C26.72 20.7552 27.645 18.5751 27.995 16.2254C28.035 15.9504 27.845 15.6952 27.575 15.6552Z" fill="var(--fill-0, white)"/>
<path id="Vector_6" d="M11.9252 27.0052C6.39403 26.2614 1.74415 21.6052 0.995352 16.0753C0.891603 15.4378 -0.0796474 15.5641 0.00534401 16.2253C0.355357 18.5753 1.28034 20.7552 2.70033 22.6202C0.629083 22.7214 -0.399645 25.4264 1.12034 26.88C2.57534 28.3912 5.28031 27.3787 5.38015 25.3C7.26388 26.7337 9.47388 27.6775 11.8502 28C12.4602 27.995 12.5289 27.1027 11.9252 27.0052Z" fill="var(--fill-0, white)"/>
</g>
</svg>
