<svg preserveAspectRatio="none" width="100%" height="100%" overflow="visible" style="display: block;" viewBox="0 0 21.9719 20.9936" fill="none" xmlns="http://www.w3.org/2000/svg">
<g id="Group">
<path id="Vector" d="M7.23604 6.33797L0.856035 7.26297L0.743037 7.28597C0.572037 7.33139 0.416041 7.42138 0.291041 7.54678C0.166041 7.67217 0.077038 7.82846 0.032038 7.9997C-0.011962 8.17094 -0.0109647 8.35098 0.0370353 8.52146C0.0840353 8.69196 0.176034 8.84666 0.303034 8.96996L4.92504 13.469L3.83504 19.824L3.82204 19.934C3.81204 20.1109 3.84803 20.2875 3.92903 20.4455C4.00903 20.6036 4.13004 20.7375 4.27904 20.8335C4.42804 20.9296 4.59903 20.9843 4.77603 20.9921C4.95303 20.9999 5.12904 20.9606 5.28604 20.878L10.992 17.878L16.685 20.878L16.785 20.924C16.95 20.989 17.13 21.009 17.305 20.9818C17.48 20.9546 17.645 20.8812 17.783 20.7693C17.92 20.6573 18.026 20.5108 18.088 20.3447C18.15 20.1785 18.167 19.9988 18.137 19.824L17.046 13.469L21.67 8.96896L21.748 8.88396C21.86 8.74676 21.933 8.58246 21.96 8.40777C21.987 8.23311 21.968 8.05435 21.903 7.8897C21.839 7.72506 21.732 7.58041 21.594 7.47049C21.455 7.36057 21.29 7.28931 21.115 7.26397L14.735 6.33797L11.883 0.55797C11.801 0.39051 11.673 0.24949 11.514 0.15088C11.356 0.05227 11.173 0 10.986 0C10.8 0 10.617 0.05227 10.458 0.15088C10.3 0.24949 10.172 0.39051 10.089 0.55797L7.23604 6.33797Z" fill="var(--fill-0, #F8C317)"/>
</g>
</svg>
