<svg preserveAspectRatio="none" width="100%" height="100%" overflow="visible" style="display: block;" viewBox="0 0 12 12" fill="none" xmlns="http://www.w3.org/2000/svg">
<path id="Vector" d="M10.7701 4.77013H7.22987V1.22987C7.22987 0.554874 6.67499 0 6 0C5.32501 0 4.77013 0.554874 4.77013 1.22987V4.77013H1.22987C0.554875 4.77013 0 5.32501 0 6C0 6.67499 0.554875 7.22987 1.22987 7.22987H4.77013V10.7701C4.77013 11.4451 5.32501 12 6 12C6.67499 12 7.22987 11.4451 7.22987 10.7701V7.22987H10.7701C11.4451 7.22987 12 6.67499 12 6C12 5.32501 11.4451 4.77013 10.7701 4.77013Z" fill="var(--fill-0, black)"/>
</svg>
