<svg preserveAspectRatio="none" width="100%" height="100%" overflow="visible" style="display: block;" viewBox="0 0 41.1429 40.9714" fill="none" xmlns="http://www.w3.org/2000/svg">
<g id="Group">
<path id="Vector" d="M20.5714 0C9.25714 0 0 8.4 0 18.8571C0 24.8571 3.08572 30 7.71429 33.7714V40.9714L14.7429 37.0286C16.4571 37.5429 18.6857 37.7143 20.7429 37.7143C31.8857 37.7143 41.1429 29.1429 41.1429 18.6857C40.9714 8.4 31.7143 0 20.5714 0ZM22.4571 25.7143L17.1429 19.8857L7.02857 25.7143L18.1714 13.7143L23.6571 19.2L33.7714 13.3714L22.4571 25.7143Z" fill="var(--fill-0, white)"/>
<path id="Vector_2" fill-rule="evenodd" clip-rule="evenodd" d="M20.5714 0C9.25714 0 0 8.4 0 18.8571C0 24.8571 3.08572 30 7.71429 33.7714V40.9714L14.7429 37.0286C16.4571 37.5429 18.6857 37.7143 20.7429 37.7143C31.8857 37.7143 41.1429 29.1429 41.1429 18.6857C40.9714 8.4 31.7143 0 20.5714 0ZM22.4571 25.7143L17.1429 19.8857L7.02857 25.7143L18.1714 13.7143L23.6571 19.2L33.7714 13.3714L22.4571 25.7143Z" fill="var(--fill-0, white)"/>
</g>
</svg>
