<svg preserveAspectRatio="none" width="100%" height="100%" overflow="visible" style="display: block;" viewBox="0 0 25.0833 25.0834" fill="none" xmlns="http://www.w3.org/2000/svg">
<g id="Group">
<path id="Vector" d="M20.7083 17.2084V6.12502C20.7083 4.84169 19.6583 3.79169 18.375 3.79169H11.9583" stroke="var(--stroke-0, #0E0E0E)" stroke-width="1.75" stroke-linecap="round" stroke-linejoin="round"/>
<path id="Vector_2" d="M14.875 0.875022L11.375 3.79169L14.875 6.70836" stroke="var(--stroke-0, #0E0E0E)" stroke-width="1.75" stroke-linecap="round" stroke-linejoin="round"/>
<path id="Vector_3" d="M20.7083 24.2084C22.6414 24.2084 24.2083 22.6414 24.2083 20.7084C24.2083 18.7753 22.6414 17.2084 20.7083 17.2084C18.7753 17.2084 17.2083 18.7753 17.2083 20.7084C17.2083 22.6414 18.7753 24.2084 20.7083 24.2084Z" stroke="var(--stroke-0, #0E0E0E)" stroke-width="1.75" stroke-linecap="round" stroke-linejoin="round"/>
<path id="Vector_4" d="M4.37501 12.5417V18.9584C4.37501 20.2417 5.42501 21.2917 6.70834 21.2917H13.125" stroke="var(--stroke-0, #0E0E0E)" stroke-width="1.75" stroke-linecap="round" stroke-linejoin="round"/>
<path id="Vector_5" d="M10.2083 24.2084L13.7083 21.2917L10.2083 18.375" stroke="var(--stroke-0, #0E0E0E)" stroke-width="1.75" stroke-linecap="round" stroke-linejoin="round"/>
<path id="Vector_6" d="M4.375 7.87506C6.30799 7.87506 7.875 6.30805 7.875 4.37506C7.875 2.44207 6.30799 0.875063 4.375 0.875063C2.44201 0.875063 0.875 2.44207 0.875 4.37506C0.875 6.30805 2.44201 7.87506 4.375 7.87506Z" stroke="var(--stroke-0, #0E0E0E)" stroke-width="1.75" stroke-linecap="round" stroke-linejoin="round"/>
</g>
</svg>
