<svg preserveAspectRatio="none" width="100%" height="100%" overflow="visible" style="display: block;" viewBox="0 0 24 24" fill="none" xmlns="http://www.w3.org/2000/svg">
<g id="Frame">
<path id="Vector" d="M9.37891 2.07531C10.732 1.89532 12.109 2.04343 13.3926 2.50792C14.6762 2.97244 15.8293 3.73998 16.7539 4.74425C17.6783 5.74845 18.3471 6.96105 18.7041 8.27843C19.061 9.59584 19.0957 10.9801 18.8047 12.3136C18.5299 13.5728 17.9714 14.7512 17.1748 15.7618L21.707 20.2931H21.7061C21.8015 20.3835 21.8791 20.4913 21.9326 20.6114C21.9873 20.7341 22.0162 20.8668 22.0186 21.0011C22.0209 21.1354 21.9966 21.2692 21.9463 21.3937C21.896 21.5181 21.8205 21.6308 21.7256 21.7257C21.6307 21.8206 21.518 21.8961 21.3936 21.9464C21.269 21.9967 21.1352 22.021 21.001 22.0187C20.8667 22.0163 20.734 21.9864 20.6113 21.9318C20.4913 21.8782 20.3833 21.8015 20.293 21.7062L15.7617 17.1749C14.5552 18.1261 13.1126 18.7341 11.5859 18.9308C9.98381 19.1372 8.3563 18.8828 6.89355 18.1974C5.43072 17.5119 4.19281 16.424 3.32617 15.0607C2.4597 13.6974 1.99985 12.1154 2 10.5001C2.00018 9.13514 2.32918 7.7902 2.95898 6.57921C3.58886 5.36817 4.50162 4.32602 5.61914 3.5421C6.73647 2.75844 8.02607 2.25531 9.37891 2.07531ZM10.5 4.00011C9.64641 4.00011 8.80131 4.16857 8.0127 4.49523C7.22409 4.82188 6.50689 5.29986 5.90332 5.90343C5.29977 6.507 4.82176 7.22421 4.49512 8.01281C4.16849 8.8014 4 9.64655 4 10.5001C4.00001 11.3537 4.16848 12.1988 4.49512 12.9874C4.82169 13.7758 5.29997 14.4923 5.90332 15.0958C6.5069 15.6994 7.22408 16.1783 8.0127 16.505C8.8013 16.8316 9.64642 17.0001 10.5 17.0001C12.2239 17.0001 13.8777 16.3148 15.0967 15.0958C16.3154 13.8769 17 12.2238 17 10.5001C17 8.77623 16.3156 7.12241 15.0967 5.90343C13.8777 4.68444 12.2239 4.00011 10.5 4.00011Z" fill="var(--fill-0, #AAAAAA)" stroke="var(--stroke-0, #AAAAAA)" stroke-width="0.5"/>
</g>
</svg>
