<svg preserveAspectRatio="none" width="100%" height="100%" overflow="visible" style="display: block;" viewBox="0 0 20.4167 25.0833" fill="none" xmlns="http://www.w3.org/2000/svg">
<g id="Group">
<path id="Vector" d="M19.5417 11.41V18.375C19.5417 23.0417 18.375 24.2083 13.7083 24.2083H6.70833C2.04167 24.2083 0.875 23.0417 0.875 18.375V6.70833C0.875 2.04167 2.04167 0.875 6.70833 0.875H13.7083C18.375 0.875 19.5417 2.04167 19.5417 6.70833" stroke="var(--stroke-0, #0E0E0E)" stroke-width="1.75" stroke-linecap="round" stroke-linejoin="round"/>
<path id="Vector_2" d="M12.5417 4.95898H7.875" stroke="var(--stroke-0, #0E0E0E)" stroke-width="1.75" stroke-linecap="round" stroke-linejoin="round"/>
<path id="Vector_3" d="M10.2107 20.8257C11.2093 20.8257 12.019 20.016 12.019 19.0173C12.019 18.0187 11.2093 17.209 10.2107 17.209C9.21201 17.209 8.40234 18.0187 8.40234 19.0173C8.40234 20.016 9.21201 20.8257 10.2107 20.8257Z" stroke="var(--stroke-0, #0E0E0E)" stroke-width="1.75" stroke-linecap="round" stroke-linejoin="round"/>
</g>
</svg>
