<svg preserveAspectRatio="none" width="100%" height="100%" overflow="visible" style="display: block;" viewBox="0 0 48 48" fill="none" xmlns="http://www.w3.org/2000/svg">
<g id="PointOfSaleSolutions-Icon">
<rect id="Rectangle 161125362" width="48" height="48" rx="10" fill="var(--fill-0, white)"/>
<path id="Vector" d="M38 17.4881V29.2093C38 31.1848 36.3933 32.7903 34.4191 32.7903H31.815C31.2753 32.7903 30.8382 32.3532 30.8382 31.8135C30.8382 31.2739 31.2753 30.8368 31.815 30.8368H34.4191C35.3165 30.8368 36.0466 30.1067 36.0466 29.2093V21.0692H33.1164C32.5768 21.0692 32.1397 20.6321 32.1397 20.0924C32.1397 19.5527 32.5768 19.1156 33.1164 19.1156H36.0466V17.4881C36.0466 16.5907 35.3165 15.8606 34.4191 15.8606H33.1164C32.5768 15.8606 32.1397 15.4235 32.1397 14.8838C32.1397 14.3442 32.5768 13.9071 33.1164 13.9071H34.4191C36.3945 13.9071 38 15.5138 38 17.4881ZM30.1863 13.5811V24.2448C30.1863 25.0506 30.0569 25.8479 29.8017 26.6135L29.1668 28.5157C28.9788 29.081 28.8836 29.6695 28.8836 30.2653V34.4177C28.8836 36.3932 27.2769 37.9988 25.3027 37.9988L14.8836 38C12.9082 38 11.3027 36.3932 11.3027 34.419V30.2665C11.3027 29.6695 11.2075 29.081 11.0194 28.5169L10.3846 26.6147C10.1294 25.8504 10 25.0531 10 24.246V13.581C10 11.6055 11.6067 10 13.5809 10H26.6042C28.5796 10 30.1851 11.6068 30.1851 13.581L30.1863 13.5811ZM28.2328 13.5811C28.2328 12.6837 27.5028 11.9536 26.6054 11.9536L13.5821 11.9523C12.6847 11.9523 11.9547 12.6824 11.9547 13.5799V24.2436C11.9547 24.8407 12.0499 25.4291 12.2379 25.9932L12.8727 27.8955C13.1279 28.6598 13.2573 29.4571 13.2573 30.2641V34.4165C13.2573 35.3139 13.9874 36.044 14.8848 36.044H25.3027C26.2 36.044 26.9301 35.3139 26.9301 34.4165V30.2641C26.9301 29.4583 27.0595 28.661 27.3147 27.8955L27.9496 25.9932C28.1376 25.4279 28.2328 24.8394 28.2328 24.2436L28.2328 13.5811ZM26.2794 16.1854V18.7896C26.2794 20.046 25.2563 21.0692 24 21.0692H16.1863C14.93 21.0692 13.9068 20.046 13.9068 18.7896V16.1854C13.9068 14.929 14.9299 13.9058 16.1863 13.9058H24C25.2563 13.9058 26.2794 14.929 26.2794 16.1854ZM24.326 16.1854C24.326 16.0059 24.1795 15.8594 24 15.8594H16.1863C16.0068 15.8594 15.8603 16.0059 15.8603 16.1854V18.7896C15.8603 18.9691 16.0068 19.1156 16.1863 19.1156H24C24.1795 19.1156 24.326 18.9691 24.326 18.7896V16.1854ZM16.1863 29.2093C15.4671 29.2093 14.8835 29.7929 14.8835 30.512C14.8835 31.2312 15.4671 31.8148 16.1863 31.8148C16.9054 31.8148 17.489 31.2312 17.489 30.512C17.489 29.7929 16.9054 29.2093 16.1863 29.2093ZM20.0931 29.2093C19.374 29.2093 18.7904 29.7929 18.7904 30.512C18.7904 31.2312 19.374 31.8148 20.0931 31.8148C20.8122 31.8148 21.3958 31.2312 21.3958 30.512C21.3958 29.7929 20.8122 29.2093 20.0931 29.2093ZM24 29.2093C23.2809 29.2093 22.6973 29.7929 22.6973 30.512C22.6973 31.2312 23.2809 31.8148 24 31.8148C24.7191 31.8148 25.3027 31.2312 25.3027 30.512C25.3027 29.7929 24.7191 29.2093 24 29.2093ZM16.1863 23.9995C15.4671 23.9995 14.8835 24.5831 14.8835 25.3022C14.8835 26.0214 15.4671 26.605 16.1863 26.605C16.9054 26.605 17.489 26.0214 17.489 25.3022C17.489 24.5831 16.9054 23.9995 16.1863 23.9995ZM20.0931 23.9995C19.374 23.9995 18.7904 24.5831 18.7904 25.3022C18.7904 26.0214 19.374 26.605 20.0931 26.605C20.8122 26.605 21.3958 26.0214 21.3958 25.3022C21.3958 24.5831 20.8122 23.9995 20.0931 23.9995ZM24 23.9995C23.2809 23.9995 22.6973 24.5831 22.6973 25.3022C22.6973 26.0214 23.2809 26.605 24 26.605C24.7191 26.605 25.3027 26.0214 25.3027 25.3022C25.3027 24.5831 24.7191 23.9995 24 23.9995Z" fill="var(--fill-0, #0E0E0E)"/>
</g>
</svg>
