<svg preserveAspectRatio="none" width="100%" height="100%" overflow="visible" style="display: block;" viewBox="0 0 14.6481 13.9957" fill="none" xmlns="http://www.w3.org/2000/svg">
<g id="Group">
<path id="Vector" d="M4.82428 4.22531L0.570945 4.84198L0.495612 4.85731C0.381572 4.88759 0.277612 4.94759 0.194338 5.03119C0.111072 5.11478 0.0514784 5.21897 0.0216517 5.33313C-0.00817362 5.44729 -0.00716964 5.56732 0.024565 5.68097C0.0562984 5.79464 0.117625 5.89777 0.202278 5.97997L3.28361 8.97931L2.55694 13.216L2.54828 13.2893C2.5413 13.4072 2.56579 13.525 2.61924 13.6303C2.6727 13.7357 2.7532 13.825 2.8525 13.889C2.9518 13.953 3.06634 13.9895 3.18438 13.9947C3.30242 13.9999 3.41972 13.9737 3.52428 13.9186L7.32826 11.9186L11.1236 13.9186L11.1903 13.9493C11.3003 13.9926 11.4199 14.006 11.5368 13.9878C11.6537 13.9697 11.7636 13.9208 11.8553 13.8462C11.9471 13.7715 12.0173 13.6738 12.0589 13.5631C12.1003 13.4523 12.1117 13.3325 12.0916 13.216L11.3643 8.97931L14.4469 5.97931L14.4989 5.92264C14.5733 5.83117 14.6219 5.72164 14.6401 5.60518C14.6583 5.48874 14.6453 5.36957 14.6023 5.2598C14.5595 5.15004 14.4883 5.05361 14.3959 4.98033C14.3037 4.90705 14.1936 4.85954 14.0769 4.84265L9.82359 4.22531L7.92226 0.37198C7.86726 0.26034 7.78206 0.166327 7.67639 0.100587C7.57072 0.0348467 7.44872 0 7.32426 0C7.19979 0 7.07786 0.0348467 6.97212 0.100587C6.86646 0.166327 6.78132 0.26034 6.72626 0.37198L4.82428 4.22531Z" fill="var(--fill-0, white)"/>
</g>
</svg>
