<svg preserveAspectRatio="none" width="100%" height="100%" overflow="visible" style="display: block;" viewBox="0 0 21.972 20.9936" fill="none" xmlns="http://www.w3.org/2000/svg">
<g id="Group">
<path id="Vector" d="M7.23635 6.33797L0.856345 7.26297L0.743346 7.28597C0.572346 7.33139 0.41635 7.42138 0.29145 7.54678C0.16655 7.67217 0.0771468 7.82846 0.0324468 7.9997C-0.0122532 8.17094 -0.010751 8.35098 0.036849 8.52146C0.084449 8.69196 0.176351 8.84666 0.303351 8.96996L4.92535 13.469L3.83535 19.824L3.82235 19.934C3.81195 20.1109 3.84865 20.2875 3.92885 20.4455C4.00905 20.6036 4.12975 20.7375 4.27875 20.8335C4.42765 20.9296 4.59945 20.9843 4.77655 20.9921C4.95355 20.9999 5.12955 20.9606 5.28635 20.878L10.9923 17.878L16.6851 20.878L16.7851 20.924C16.9501 20.989 17.1302 21.009 17.3052 20.9818C17.4802 20.9546 17.6451 20.8812 17.7831 20.7693C17.9201 20.6573 18.0261 20.5108 18.0881 20.3447C18.1501 20.1785 18.1671 19.9988 18.1371 19.824L17.0461 13.469L21.6701 8.96896L21.7481 8.88396C21.8601 8.74676 21.9331 8.58246 21.9601 8.40777C21.9871 8.23311 21.9682 8.05435 21.9032 7.8897C21.8392 7.72506 21.7321 7.58041 21.5941 7.47049C21.4551 7.36057 21.2901 7.28931 21.1151 7.26397L14.7351 6.33797L11.8833 0.55797C11.8008 0.39051 11.673 0.24949 11.5145 0.15088C11.356 0.05227 11.1731 0 10.9864 0C10.7997 0 10.6168 0.05227 10.4582 0.15088C10.2997 0.24949 10.1719 0.39051 10.0893 0.55797L7.23635 6.33797Z" fill="var(--fill-0, #F8C317)"/>
</g>
</svg>
