<svg preserveAspectRatio="none" width="100%" height="100%" overflow="visible" style="display: block;" viewBox="0 0 21.5833 25.0833" fill="none" xmlns="http://www.w3.org/2000/svg">
<g id="Group">
<path id="Vector" d="M0.875 6.755C0.875 4.98167 1.03833 3.72167 1.45833 2.82333C1.45833 2.81167 1.45836 2.8 1.48169 2.78833C2.14669 1.93667 3.32498 2.14667 4.64331 3.55833L4.65499 3.57C5.61166 4.585 7.07002 4.50333 7.89836 3.395L9.08833 1.82C9.555 1.19 10.1733 0.875 10.7917 0.875C11.41 0.875 12.0283 1.19 12.495 1.82L13.6733 3.38333C14.5133 4.50333 15.9833 4.585 16.94 3.55833C17.745 2.695 18.4917 2.28667 19.11 2.28667C19.5067 2.28667 19.845 2.46167 20.1017 2.78833C20.125 2.8 20.125 2.81167 20.125 2.82333C20.545 3.72167 20.7083 4.98167 20.7083 6.755V18.3283C20.7083 20.1017 20.545 21.3617 20.125 22.26C20.125 22.2717 20.1133 22.295 20.1017 22.3067C19.845 22.6333 19.5067 22.7967 19.11 22.7967C18.4917 22.7967 17.745 22.3883 16.94 21.525C15.9833 20.4983 14.5133 20.58 13.6733 21.7L12.495 23.2633C12.0283 23.8933 11.41 24.2083 10.7917 24.2083C10.1733 24.2083 9.555 23.8933 9.08833 23.2633L7.89836 21.6883C7.07002 20.58 5.61166 20.4983 4.65499 21.5133L4.64331 21.525C3.32498 22.9367 2.15836 23.1467 1.48169 22.3067C1.47002 22.295 1.45833 22.2717 1.45833 22.26C1.03833 21.3617 0.875 20.1017 0.875 18.3283V11.34" stroke="var(--stroke-0, #0E0E0E)" stroke-width="1.75" stroke-linecap="round" stroke-linejoin="round"/>
<path id="Vector_2" d="M14.875 10.5H16.0417" stroke="var(--stroke-0, #0E0E0E)" stroke-width="1.75" stroke-linecap="round" stroke-linejoin="round"/>
<path id="Vector_3" d="M6.70833 10.5H11.375" stroke="var(--stroke-0, #0E0E0E)" stroke-width="1.75" stroke-linecap="round" stroke-linejoin="round"/>
<path id="Vector_4" d="M6.70833 14.5833H13.7083" stroke="var(--stroke-0, #0E0E0E)" stroke-width="1.75" stroke-linecap="round" stroke-linejoin="round"/>
</g>
</svg>
