<svg preserveAspectRatio="none" width="100%" height="100%" overflow="visible" style="display: block;" viewBox="0 0 14 14" fill="none" xmlns="http://www.w3.org/2000/svg">
<g id="sms-notification">
<path id="Vector" d="M12.8333 6.12435V9.04102C12.8333 11.0827 11.6666 11.9577 9.91663 11.9577H4.08329C2.33329 11.9577 1.16663 11.0827 1.16663 9.04102V4.95768C1.16663 2.91602 2.33329 2.04102 4.08329 2.04102H8.16663" stroke="var(--stroke-0, #121212)" stroke-width="1.5" stroke-miterlimit="10" stroke-linecap="round" stroke-linejoin="round"/>
<path id="Vector_2" d="M4.08335 5.25L5.90919 6.70833C6.51002 7.18667 7.49585 7.18667 8.09669 6.70833L8.78502 6.16" stroke="var(--stroke-0, #121212)" stroke-width="1.5" stroke-miterlimit="10" stroke-linecap="round" stroke-linejoin="round"/>
<path id="Vector_3" d="M11.375 4.66667C12.1804 4.66667 12.8333 4.01375 12.8333 3.20833C12.8333 2.40292 12.1804 1.75 11.375 1.75C10.5696 1.75 9.91665 2.40292 9.91665 3.20833C9.91665 4.01375 10.5696 4.66667 11.375 4.66667Z" stroke="var(--stroke-0, #121212)" stroke-width="1.5" stroke-miterlimit="10" stroke-linecap="round" stroke-linejoin="round"/>
<g id="Vector_4" opacity="0">
</g>
</g>
</svg>
