<svg xmlns="http://www.w3.org/2000/svg" width="512" height="512" viewBox="0 0 512 512" role="img" aria-label="Sample QR code">
  <rect width="512" height="512" fill="#ffffff"/>

  <!-- Finder patterns -->
  <rect x="32" y="32" width="140" height="140" fill="#000"/>
  <rect x="52" y="52" width="100" height="100" fill="#fff"/>
  <rect x="72" y="72" width="60" height="60" fill="#000"/>

  <rect x="340" y="32" width="140" height="140" fill="#000"/>
  <rect x="360" y="52" width="100" height="100" fill="#fff"/>
  <rect x="380" y="72" width="60" height="60" fill="#000"/>

  <rect x="32" y="340" width="140" height="140" fill="#000"/>
  <rect x="52" y="360" width="100" height="100" fill="#fff"/>
  <rect x="72" y="380" width="60" height="60" fill="#000"/>

  <!-- Data modules (sample pattern) -->
  <g fill="#000">
    <rect x="200" y="40" width="20" height="20"/>
    <rect x="240" y="40" width="20" height="20"/>
    <rect x="260" y="40" width="20" height="20"/>
    <rect x="300" y="40" width="20" height="20"/>

    <rect x="200" y="80" width="20" height="20"/>
    <rect x="220" y="100" width="20" height="20"/>
    <rect x="260" y="80" width="20" height="20"/>
    <rect x="300" y="100" width="20" height="20"/>

    <rect x="180" y="180" width="20" height="20"/>
    <rect x="220" y="180" width="20" height="20"/>
    <rect x="240" y="180" width="20" height="20"/>
    <rect x="280" y="180" width="20" height="20"/>
    <rect x="320" y="180" width="20" height="20"/>

    <rect x="180" y="220" width="20" height="20"/>
    <rect x="200" y="240" width="20" height="20"/>
    <rect x="240" y="220" width="20" height="20"/>
    <rect x="260" y="240" width="20" height="20"/>
    <rect x="300" y="220" width="20" height="20"/>

    <rect x="180" y="260" width="20" height="20"/>
    <rect x="220" y="260" width="20" height="20"/>
    <rect x="260" y="260" width="20" height="20"/>
    <rect x="300" y="260" width="20" height="20"/>
    <rect x="320" y="280" width="20" height="20"/>

    <rect x="200" y="300" width="20" height="20"/>
    <rect x="240" y="300" width="20" height="20"/>
    <rect x="280" y="300" width="20" height="20"/>
    <rect x="320" y="300" width="20" height="20"/>

    <rect x="200" y="340" width="20" height="20"/>
    <rect x="240" y="340" width="20" height="20"/>
    <rect x="260" y="360" width="20" height="20"/>
    <rect x="300" y="340" width="20" height="20"/>
    <rect x="320" y="360" width="20" height="20"/>

    <rect x="200" y="380" width="20" height="20"/>
    <rect x="220" y="400" width="20" height="20"/>
    <rect x="260" y="400" width="20" height="20"/>
    <rect x="280" y="380" width="20" height="20"/>
    <rect x="320" y="400" width="20" height="20"/>

    <rect x="360" y="200" width="20" height="20"/>
    <rect x="380" y="220" width="20" height="20"/>
    <rect x="400" y="200" width="20" height="20"/>
    <rect x="420" y="220" width="20" height="20"/>
    <rect x="440" y="200" width="20" height="20"/>

    <rect x="360" y="260" width="20" height="20"/>
    <rect x="400" y="260" width="20" height="20"/>
    <rect x="440" y="260" width="20" height="20"/>

    <rect x="360" y="320" width="20" height="20"/>
    <rect x="380" y="340" width="20" height="20"/>
    <rect x="420" y="340" width="20" height="20"/>
    <rect x="440" y="320" width="20" height="20"/>

    <rect x="360" y="380" width="20" height="20"/>
    <rect x="400" y="380" width="20" height="20"/>
    <rect x="440" y="380" width="20" height="20"/>
  </g>
</svg>
