<svg width="40" height="40" viewBox="0 0 40 40" fill="none" xmlns="http://www.w3.org/2000/svg">
<path d="M20.0003 3.33334C29.2003 3.33334 36.667 10.8 36.667 20C36.667 29.2 29.2003 36.6667 20.0003 36.6667C10.8003 36.6667 3.33366 29.2 3.33366 20C3.33366 10.8 10.8003 3.33334 20.0003 3.33334ZM13.2837 20.8833L18.2837 25.8833C18.5337 26.1333 18.8503 26.25 19.167 26.25C19.4837 26.25 19.8003 26.1333 20.0503 25.8833C20.5337 25.4 20.5337 24.6 20.0503 24.1167L17.1837 21.25H25.8337C26.517 21.25 27.0837 20.6833 27.0837 20C27.0837 19.3167 26.517 18.75 25.8337 18.75H17.1837L20.0503 15.8833C20.5337 15.4 20.5337 14.6 20.0503 14.1167C19.567 13.6333 18.767 13.6333 18.2837 14.1167L13.2837 19.1167C12.8003 19.6 12.8003 20.4 13.2837 20.8833Z" fill="#AEAEAE"/>
</svg>
