<svg width="140" height="24" viewBox="0 0 140 24" fill="none" xmlns="http://www.w3.org/2000/svg">
<mask id="mask0_36678_840" style="mask-type:luminance" maskUnits="userSpaceOnUse" x="0" y="0" width="24" height="24">
<path d="M24 0H0V24H24V0Z" fill="white"/>
</mask>
<g mask="url(#mask0_36678_840)">
<path d="M8.24423 7.33992L1.86423 8.26492L1.75123 8.28792C1.58017 8.33334 1.42423 8.42333 1.29932 8.54873C1.17442 8.67412 1.08503 8.83041 1.04029 9.00165C0.995552 9.17289 0.997058 9.35293 1.04466 9.52341C1.09226 9.69391 1.18425 9.84861 1.31123 9.97191L5.93323 14.4709L4.84323 20.8259L4.83023 20.9359C4.81976 21.1128 4.8565 21.2894 4.93668 21.4474C5.01686 21.6055 5.13761 21.7394 5.28657 21.8354C5.43552 21.9315 5.60732 21.9862 5.78438 21.994C5.96144 22.0018 6.13739 21.9625 6.29423 21.8799L12.0002 18.8799L17.6932 21.8799L17.7932 21.9259C17.9583 21.9909 18.1377 22.0109 18.313 21.9837C18.4883 21.9565 18.6532 21.8831 18.7908 21.7712C18.9284 21.6592 19.0338 21.5127 19.0961 21.3466C19.1583 21.1804 19.1753 21.0007 19.1452 20.8259L18.0542 14.4709L22.6782 9.97091L22.7562 9.88591C22.8677 9.74871 22.9407 9.58441 22.968 9.40972C22.9952 9.23506 22.9757 9.0563 22.9113 8.89165C22.847 8.72701 22.7402 8.58236 22.6017 8.47244C22.4633 8.36252 22.2982 8.29126 22.1232 8.26592L15.7432 7.33992L12.8912 1.55992C12.8087 1.39246 12.6809 1.25144 12.5224 1.15283C12.3639 1.05422 12.1809 1.00195 11.9942 1.00195C11.8075 1.00195 11.6246 1.05422 11.466 1.15283C11.3075 1.25144 11.1798 1.39246 11.0972 1.55992L8.24423 7.33992Z" fill="#D6DAE4"/>
</g>
<mask id="mask1_36678_840" style="mask-type:luminance" maskUnits="userSpaceOnUse" x="29" y="0" width="24" height="24">
<path d="M53 0H29V24H53V0Z" fill="white"/>
</mask>
<g mask="url(#mask1_36678_840)">
<path d="M37.2442 7.33992L30.8642 8.26492L30.7512 8.28792C30.5802 8.33334 30.4242 8.42333 30.2993 8.54873C30.1744 8.67412 30.085 8.83041 30.0403 9.00165C29.9956 9.17289 29.9971 9.35293 30.0447 9.52341C30.0923 9.69391 30.1842 9.84861 30.3112 9.97191L34.9332 14.4709L33.8432 20.8259L33.8302 20.9359C33.8198 21.1128 33.8565 21.2894 33.9367 21.4474C34.0169 21.6055 34.1376 21.7394 34.2866 21.8354C34.4355 21.9315 34.6073 21.9862 34.7844 21.994C34.9614 22.0018 35.1374 21.9625 35.2942 21.8799L41.0002 18.8799L46.6932 21.8799L46.7932 21.9259C46.9583 21.9909 47.1377 22.0109 47.313 21.9837C47.4883 21.9565 47.6532 21.8831 47.7908 21.7712C47.9284 21.6592 48.0338 21.5127 48.0961 21.3466C48.1583 21.1804 48.1753 21.0007 48.1452 20.8259L47.0542 14.4709L51.6782 9.97091L51.7562 9.88591C51.8677 9.74871 51.9407 9.58441 51.968 9.40972C51.9952 9.23506 51.9757 9.0563 51.9113 8.89165C51.847 8.72701 51.7402 8.58236 51.6017 8.47244C51.4633 8.36252 51.2982 8.29126 51.1232 8.26592L44.7432 7.33992L41.8912 1.55992C41.8087 1.39246 41.6809 1.25144 41.5224 1.15283C41.3639 1.05422 41.1809 1.00195 40.9942 1.00195C40.8075 1.00195 40.6246 1.05422 40.466 1.15283C40.3075 1.25144 40.1798 1.39246 40.0972 1.55992L37.2442 7.33992Z" fill="#D6DAE4"/>
</g>
<mask id="mask2_36678_840" style="mask-type:luminance" maskUnits="userSpaceOnUse" x="58" y="0" width="24" height="24">
<path d="M82 0H58V24H82V0Z" fill="white"/>
</mask>
<g mask="url(#mask2_36678_840)">
<path d="M66.2442 7.33992L59.8642 8.26492L59.7512 8.28792C59.5802 8.33334 59.4242 8.42333 59.2993 8.54873C59.1744 8.67412 59.085 8.83041 59.0403 9.00165C58.9956 9.17289 58.9971 9.35293 59.0447 9.52341C59.0923 9.69391 59.1842 9.84861 59.3112 9.97191L63.9332 14.4709L62.8432 20.8259L62.8302 20.9359C62.8198 21.1128 62.8565 21.2894 62.9367 21.4474C63.0169 21.6055 63.1376 21.7394 63.2866 21.8354C63.4355 21.9315 63.6073 21.9862 63.7844 21.994C63.9614 22.0018 64.1374 21.9625 64.2942 21.8799L70.0002 18.8799L75.6932 21.8799L75.7932 21.9259C75.9583 21.9909 76.1377 22.0109 76.313 21.9837C76.4883 21.9565 76.6532 21.8831 76.7908 21.7712C76.9284 21.6592 77.0338 21.5127 77.0961 21.3466C77.1583 21.1804 77.1753 21.0007 77.1452 20.8259L76.0542 14.4709L80.6782 9.97091L80.7562 9.88591C80.8677 9.74871 80.9407 9.58441 80.968 9.40972C80.9952 9.23506 80.9757 9.0563 80.9113 8.89165C80.847 8.72701 80.7402 8.58236 80.6017 8.47244C80.4633 8.36252 80.2982 8.29126 80.1232 8.26592L73.7432 7.33992L70.8912 1.55992C70.8087 1.39246 70.6809 1.25144 70.5224 1.15283C70.3639 1.05422 70.1809 1.00195 69.9942 1.00195C69.8075 1.00195 69.6246 1.05422 69.466 1.15283C69.3075 1.25144 69.1798 1.39246 69.0972 1.55992L66.2442 7.33992Z" fill="#D6DAE4"/>
</g>
<mask id="mask3_36678_840" style="mask-type:luminance" maskUnits="userSpaceOnUse" x="87" y="0" width="24" height="24">
<path d="M111 0H87V24H111V0Z" fill="white"/>
</mask>
<g mask="url(#mask3_36678_840)">
<path d="M95.2442 7.33992L88.8642 8.26492L88.7512 8.28792C88.5802 8.33334 88.4242 8.42333 88.2993 8.54873C88.1744 8.67412 88.085 8.83041 88.0403 9.00165C87.9956 9.17289 87.9971 9.35293 88.0447 9.52341C88.0923 9.69391 88.1842 9.84861 88.3112 9.97191L92.9332 14.4709L91.8432 20.8259L91.8302 20.9359C91.8198 21.1128 91.8565 21.2894 91.9367 21.4474C92.0169 21.6055 92.1376 21.7394 92.2866 21.8354C92.4355 21.9315 92.6073 21.9862 92.7844 21.994C92.9614 22.0018 93.1374 21.9625 93.2942 21.8799L99.0002 18.8799L104.693 21.8799L104.793 21.9259C104.958 21.9909 105.138 22.0109 105.313 21.9837C105.488 21.9565 105.653 21.8831 105.791 21.7712C105.928 21.6592 106.034 21.5127 106.096 21.3466C106.158 21.1804 106.175 21.0007 106.145 20.8259L105.054 14.4709L109.678 9.97091L109.756 9.88591C109.868 9.74871 109.941 9.58441 109.968 9.40972C109.995 9.23506 109.976 9.0563 109.911 8.89165C109.847 8.72701 109.74 8.58236 109.602 8.47244C109.463 8.36252 109.298 8.29126 109.123 8.26592L102.743 7.33992L99.8912 1.55992C99.8087 1.39246 99.6809 1.25144 99.5224 1.15283C99.3639 1.05422 99.1809 1.00195 98.9942 1.00195C98.8075 1.00195 98.6246 1.05422 98.466 1.15283C98.3075 1.25144 98.1798 1.39246 98.0972 1.55992L95.2442 7.33992Z" fill="#D6DAE4"/>
</g>
<mask id="mask4_36678_840" style="mask-type:luminance" maskUnits="userSpaceOnUse" x="116" y="0" width="24" height="24">
<path d="M140 0H116V24H140V0Z" fill="white"/>
</mask>
<g mask="url(#mask4_36678_840)">
<path d="M124.244 7.33992L117.864 8.26492L117.751 8.28792C117.58 8.33334 117.424 8.42333 117.299 8.54873C117.174 8.67412 117.085 8.83041 117.04 9.00165C116.996 9.17289 116.997 9.35293 117.045 9.52341C117.092 9.69391 117.184 9.84861 117.311 9.97191L121.933 14.4709L120.843 20.8259L120.83 20.9359C120.82 21.1128 120.856 21.2894 120.937 21.4474C121.017 21.6055 121.138 21.7394 121.287 21.8354C121.436 21.9315 121.607 21.9862 121.784 21.994C121.961 22.0018 122.137 21.9625 122.294 21.8799L128 18.8799L133.693 21.8799L133.793 21.9259C133.958 21.9909 134.138 22.0109 134.313 21.9837C134.488 21.9565 134.653 21.8831 134.791 21.7712C134.928 21.6592 135.034 21.5127 135.096 21.3466C135.158 21.1804 135.175 21.0007 135.145 20.8259L134.054 14.4709L138.678 9.97091L138.756 9.88591C138.868 9.74871 138.941 9.58441 138.968 9.40972C138.995 9.23506 138.976 9.0563 138.911 8.89165C138.847 8.72701 138.74 8.58236 138.602 8.47244C138.463 8.36252 138.298 8.29126 138.123 8.26592L131.743 7.33992L128.891 1.55992C128.809 1.39246 128.681 1.25144 128.522 1.15283C128.364 1.05422 128.181 1.00195 127.994 1.00195C127.808 1.00195 127.625 1.05422 127.466 1.15283C127.308 1.25144 127.18 1.39246 127.097 1.55992L124.244 7.33992Z" fill="#D6DAE4"/>
</g>
</svg>
