<svg width="36" height="32" viewBox="0 0 36 32" fill="none" xmlns="http://www.w3.org/2000/svg">
<path d="M5 26C2.23858 26 4.83208e-08 23.7614 0 21V5C2.57711e-07 2.23858 2.23858 1.28851e-07 5 0H31C33.7614 1.28851e-07 36 2.23858 36 5V21C36 23.7614 33.7614 26 31 26H15L8.24902 31.4004C6.93953 32.4478 5.00009 31.5157 5 29.8389V26Z" fill="#F36B7F"/>
<mask id="mask0_36677_498" style="mask-type:luminance" maskUnits="userSpaceOnUse" x="10" y="5" width="16" height="16">
<path d="M26 5H10V21H26V5Z" fill="white"/>
</mask>
<g mask="url(#mask0_36677_498)">
<path d="M15.4962 9.89328L11.2428 10.5099L11.1675 10.5253C11.0534 10.5556 10.9495 10.6156 10.8662 10.6992C10.7829 10.7827 10.7234 10.8869 10.6935 11.0011C10.6637 11.1153 10.6647 11.2353 10.6964 11.3489C10.7282 11.4626 10.7895 11.5657 10.8742 11.6479L13.9555 14.6473L13.2288 18.8839L13.2202 18.9573C13.2132 19.0752 13.2377 19.1929 13.2911 19.2983C13.3446 19.4037 13.4251 19.4929 13.5244 19.5569C13.6237 19.621 13.7382 19.6575 13.8563 19.6627C13.9743 19.6679 14.0916 19.6417 14.1962 19.5866L18.0001 17.5866L21.7955 19.5866L21.8621 19.6173C21.9722 19.6606 22.0918 19.6739 22.2087 19.6558C22.3255 19.6377 22.4355 19.5887 22.5272 19.5141C22.6189 19.4395 22.6892 19.3418 22.7307 19.2311C22.7722 19.1203 22.7835 19.0005 22.7635 18.8839L22.0361 14.6473L25.1188 11.6473L25.1708 11.5906C25.2451 11.4991 25.2938 11.3896 25.312 11.2731C25.3301 11.1567 25.3171 11.0375 25.2742 10.9278C25.2313 10.818 25.1601 10.7216 25.0678 10.6483C24.9755 10.575 24.8655 10.5275 24.7488 10.5106L20.4955 9.89328L18.5941 6.03995C18.5391 5.92831 18.4539 5.8343 18.3483 5.76856C18.2426 5.70282 18.1206 5.66797 17.9961 5.66797C17.8717 5.66797 17.7497 5.70282 17.644 5.76856C17.5383 5.8343 17.4532 5.92831 17.3981 6.03995L15.4962 9.89328Z" fill="white"/>
</g>
</svg>
